  0
SECTION
  2
HEADER
  9
$ACADVER
  1
AC1012
  9
$DWGCODEPAGE
  3
ansi_1252
  9
$INSBASE
 10
0.0
 20
0.0
 30
0.0
  9
$EXTMIN
 10
1.000000000000000E+20
 20
1.000000000000000E+20
 30
1.000000000000000E+20
  9
$EXTMAX
 10
-1.000000000000000E+20
 20
-1.000000000000000E+20
 30
-1.000000000000000E+20
  9
$LIMMIN
 10
0.0
 20
0.0
  9
$LIMMAX
 10
12.0
 20
9.0
  9
$ORTHOMODE
 70
     0
  9
$REGENMODE
 70
     1
  9
$FILLMODE
 70
     1
  9
$QTEXTMODE
 70
     0
  9
$MIRRTEXT
 70
     1
  9
$DRAGMODE
 70
     2
  9
$LTSCALE
 40
12.7
  9
$OSMODE
 70
    23
  9
$ATTMODE
 70
     1
  9
$TEXTSIZE
 40
2.5
  9
$TRACEWID
 40
0.05
  9
$TEXTSTYLE
  7
ONSHAPE-STANDARD
  9
$CLAYER
  8
0
  9
$CELTYPE
  6
BYLAYER
  9
$CECOLOR
 62
   256
  9
$CELTSCALE
 40
1.0
  9
$DELOBJ
 70
     1
  9
$DISPSILH
 70
     0
  9
$DIMSCALE
 40
1.0
  9
$DIMASZ
 40
2.5
  9
$DIMEXO
 40
0.625
  9
$DIMDLI
 40
3.75
  9
$DIMRND
 40
0.0
  9
$DIMDLE
 40
0.0
  9
$DIMEXE
 40
1.25
  9
$DIMTP
 40
0.0
  9
$DIMTM
 40
0.0
  9
$DIMTXT
 40
3.5
  9
$DIMCEN
 40
2.5
  9
$DIMTSZ
 40
0.0
  9
$DIMTOL
 70
     0
  9
$DIMLIM
 70
     0
  9
$DIMTIH
 70
     0
  9
$DIMTOH
 70
     0
  9
$DIMSE1
 70
     0
  9
$DIMSE2
 70
     0
  9
$DIMTAD
 70
     1
  9
$DIMZIN
 70
     8
  9
$DIMBLK
  1

  9
$DIMASO
 70
     1
  9
$DIMSHO
 70
     1
  9
$DIMPOST
  1

  9
$DIMAPOST
  1

  9
$DIMALT
 70
     0
  9
$DIMALTD
 70
     3
  9
$DIMALTF
 40
25.4
  9
$DIMLFAC
 40
1.0
  9
$DIMTOFL
 70
     1
  9
$DIMTVP
 40
0.0
  9
$DIMTIX
 70
     0
  9
$DIMSOXD
 70
     0
  9
$DIMSAH
 70
     0
  9
$DIMBLK1
  1

  9
$DIMBLK2
  1

  9
$DIMSTYLE
  2
ONSHAPE-ISO-25
  9
$DIMCLRD
 70
     7
  9
$DIMCLRE
 70
     7
  9
$DIMCLRT
 70
     7
  9
$DIMTFAC
 40
1.0
  9
$DIMGAP
 40
0.625
  9
$DIMJUST
 70
     0
  9
$DIMSD1
 70
     0
  9
$DIMSD2
 70
     0
  9
$DIMTOLJ
 70
     0
  9
$DIMTZIN
 70
     8
  9
$DIMALTZ
 70
     0
  9
$DIMALTTZ
 70
     0
  9
$DIMFIT
 70
     3
  9
$DIMUPT
 70
     1
  9
$DIMUNIT
 70
     2
  9
$DIMDEC
 70
     2
  9
$DIMTDEC
 70
     2
  9
$DIMALTU
 70
     2
  9
$DIMALTTD
 70
     3
  9
$DIMTXSTY
  7
ONSHAPE-STANDARD-DIMENSION
  9
$DIMAUNIT
 70
     0
  9
$LUNITS
 70
     2
  9
$LUPREC
 70
     4
  9
$SKETCHINC
 40
0.1
  9
$FILLETRAD
 40
0.5
  9
$AUNITS
 70
     0
  9
$AUPREC
 70
     0
  9
$MENU
  1
.
  9
$ELEVATION
 40
0.0
  9
$PELEVATION
 40
0.0
  9
$THICKNESS
 40
0.0
  9
$LIMCHECK
 70
     0
  9
$CHAMFERA
 40
0.0
  9
$CHAMFERB
 40
0.0
  9
$CHAMFERC
 40
0.0
  9
$CHAMFERD
 40
0.0
  9
$SKPOLY
 70
     0
  9
$TDCREATE
 40
2458868.893356482
  9
$TDUPDATE
 40
2458868.893356482
  9
$TDINDWG
 40
0.0
  9
$TDUSRTIMER
 40
0.0
  9
$USRTIMER
 70
     1
  9
$ANGBASE
 50
0.0
  9
$ANGDIR
 70
     0
  9
$PDMODE
 70
     0
  9
$PDSIZE
 40
0.0
  9
$PLINEWID
 40
0.0
  9
$COORDS
 70
     1
  9
$SPLFRAME
 70
     0
  9
$SPLINETYPE
 70
     6
  9
$SPLINESEGS
 70
     8
  9
$ATTDIA
 70
     0
  9
$ATTREQ
 70
     1
  9
$HANDLING
 70
     1
  9
$HANDSEED
  5
22F
  9
$SURFTAB1
 70
     6
  9
$SURFTAB2
 70
     6
  9
$SURFTYPE
 70
     6
  9
$SURFU
 70
     6
  9
$SURFV
 70
     6
  9
$UCSNAME
  2

  9
$UCSORG
 10
0.0
 20
0.0
 30
0.0
  9
$UCSXDIR
 10
1.0
 20
0.0
 30
0.0
  9
$UCSYDIR
 10
0.0
 20
1.0
 30
0.0
  9
$PUCSNAME
  2

  9
$PUCSORG
 10
0.0
 20
0.0
 30
0.0
  9
$PUCSXDIR
 10
1.0
 20
0.0
 30
0.0
  9
$PUCSYDIR
 10
0.0
 20
1.0
 30
0.0
  9
$USERI1
 70
     0
  9
$USERI2
 70
     0
  9
$USERI3
 70
     0
  9
$USERI4
 70
     0
  9
$USERI5
 70
     0
  9
$USERR1
 40
0.0
  9
$USERR2
 40
0.0
  9
$USERR3
 40
0.0
  9
$USERR4
 40
0.0
  9
$USERR5
 40
0.0
  9
$WORLDVIEW
 70
     1
  9
$SHADEDGE
 70
     3
  9
$SHADEDIF
 70
    70
  9
$TILEMODE
 70
     1
  9
$MAXACTVP
 70
    64
  9
$PINSBASE
 10
0.0
 20
0.0
 30
0.0
  9
$PLIMCHECK
 70
     0
  9
$PEXTMIN
 10
1.000000000000000E+20
 20
1.000000000000000E+20
 30
1.000000000000000E+20
  9
$PEXTMAX
 10
-1.000000000000000E+20
 20
-1.000000000000000E+20
 30
-1.000000000000000E+20
  9
$PLIMMIN
 10
0.0
 20
0.0
  9
$PLIMMAX
 10
12.0
 20
9.0
  9
$UNITMODE
 70
     0
  9
$VISRETAIN
 70
     1
  9
$PLINEGEN
 70
     0
  9
$PSLTSCALE
 70
     1
  9
$TREEDEPTH
 70
  3020
  9
$PICKSTYLE
 70
     1
  9
$CMLSTYLE
  2
STANDARD
  9
$CMLJUST
 70
     0
  9
$CMLSCALE
 40
1.0
  9
$SAVEIMAGES
 70
     1
  0
ENDSEC
  0
SECTION
  2
CLASSES
  0
CLASS
  1
ACDBDICTIONARYWDFLT
  2
AcDbDictionaryWithDefault
  3
ObjectDBX Classes
 90
    32768
280
     0
281
     0
  0
CLASS
  1
VISUALSTYLE
  2
AcDbVisualStyle
  3
ObjectDBX Classes
 90
     4095
280
     0
281
     0
  0
CLASS
  1
MATERIAL
  2
AcDbMaterial
  3
ObjectDBX Classes
 90
     1153
280
     0
281
     0
  0
CLASS
  1
SCALE
  2
AcDbScale
  3
ObjectDBX Classes
 90
     1153
280
     0
281
     0
  0
CLASS
  1
SUN
  2
AcDbSun
  3
SCENEOE
 90
     1153
280
     0
281
     0
  0
CLASS
  1
TABLESTYLE
  2
AcDbTableStyle
  3
ObjectDBX Classes
 90
     4095
280
     0
281
     0
  0
CLASS
  1
DICTIONARYVAR
  2
AcDbDictionaryVar
  3
ObjectDBX Classes
 90
        0
280
     0
281
     0
  0
CLASS
  1
FIELD
  2
AcDbField
  3
ObjectDBX Classes
 90
     1152
280
     0
281
     0
  0
CLASS
  1
FIELDLIST
  2
AcDbFieldList
  3
ObjectDBX Classes
 90
     1152
280
     0
281
     0
  0
CLASS
  1
XRECORD
  2
AcDbXrecord
  3
ObjectDBX Classes
 90
    32768
280
     0
281
     0
  0
CLASS
  1
LWPOLYLINE
  2
AcDbPolyline
  3
ObjectDBX Classes
 90
    32768
280
     0
281
     1
  0
CLASS
  1
HATCH
  2
AcDbHatch
  3
ObjectDBX Classes
 90
    32768
280
     0
281
     1
  0
CLASS
  1
ACDBPLACEHOLDER
  2
AcDbPlaceHolder
  3
ObjectDBX Classes
 90
        0
280
     0
281
     0
  0
CLASS
  1
LAYOUT
  2
AcDbLayout
  3
ObjectDBX Classes
 90
        0
280
     0
281
     0
  0
ENDSEC
  0
SECTION
  2
TABLES
  0
TABLE
  2
VPORT
  5
8
330
0
100
AcDbSymbolTable
 70
     1
  0
VPORT
  5
29
330
8
100
AcDbSymbolTableRecord
100
AcDbViewportTableRecord
  2
*ACTIVE
 70
     0
 10
0.0
 20
0.0
 11
1.0
 21
1.0
 12
595.5
 22
423.5
 13
0.0
 23
0.0
 14
0.5
 24
0.5
 15
0.5
 25
0.5
 16
0.0
 26
0.0
 36
1.0
 17
0.0
 27
0.0
 37
0.0
 40
861.9
 41
1.404733727810651
 42
50.0
 43
0.0
 44
0.0
 50
0.0
 51
0.0
 71
     0
 72
   100
 73
     1
 74
     3
 75
     0
 76
     0
 77
     0
 78
     0
  0
ENDTAB
  0
TABLE
  2
LTYPE
  5
5
330
0
100
AcDbSymbolTable
 70
     2
  0
LTYPE
  5
14
330
5
100
AcDbSymbolTableRecord
100
AcDbLinetypeTableRecord
  2
BYBLOCK
 70
     0
  3

 72
    65
 73
     0
 40
0.0
  0
LTYPE
  5
15
330
5
100
AcDbSymbolTableRecord
100
AcDbLinetypeTableRecord
  2
BYLAYER
 70
     0
  3

 72
    65
 73
     0
 40
0.0
  0
LTYPE
  5
16
330
5
100
AcDbSymbolTableRecord
100
AcDbLinetypeTableRecord
  2
CONTINUOUS
 70
     0
  3
Solid line
 72
    65
 73
     0
 40
0.0
  0
LTYPE
  5
E6
330
5
100
AcDbSymbolTableRecord
100
AcDbLinetypeTableRecord
  2
CENTER
 70
     0
  3
CENTER
 72
    65
 73
     4
 40
0.7199999999999999
 49
0.45
 74
     0
 49
-0.09
 74
     0
 49
0.09
 74
     0
 49
-0.09
 74
     0
  0
ENDTAB
  0
TABLE
  2
LAYER
  5
2
330
0
100
AcDbSymbolTable
 70
     9
  0
LAYER
  5
10
330
2
100
AcDbSymbolTableRecord
100
AcDbLayerTableRecord
  2
0
 70
     0
 62
     7
  6
CONTINUOUS
  0
LAYER
  5
6E
330
2
100
AcDbSymbolTableRecord
100
AcDbLayerTableRecord
  2
DEFPOINTS
 70
     0
 62
     7
  6
CONTINUOUS
  0
LAYER
  5
73
330
2
100
AcDbSymbolTableRecord
100
AcDbLayerTableRecord
  2
BORDER_FRAME
 70
     0
 62
     7
  6
CONTINUOUS
  0
LAYER
  5
7A
330
2
100
AcDbSymbolTableRecord
100
AcDbLayerTableRecord
  2
BORDER_ZONES
 70
     0
 62
     7
  6
CONTINUOUS
  0
LAYER
  5
11B
330
2
100
AcDbSymbolTableRecord
100
AcDbLayerTableRecord
  2
TITLE_BLOCK
 70
     0
 62
     7
  6
CONTINUOUS
  0
LAYER
  5
137
330
2
100
AcDbSymbolTableRecord
100
AcDbLayerTableRecord
  2
ANNOTATION_TEXT
 70
     0
 62
     7
  6
CONTINUOUS
  0
LAYER
  5
155
330
2
100
AcDbSymbolTableRecord
100
AcDbLayerTableRecord
  2
ANNOTATION_LINES
 70
     0
 62
     7
  6
CONTINUOUS
  0
LAYER
  5
157
330
2
100
AcDbSymbolTableRecord
100
AcDbLayerTableRecord
  2
SHEETMETAL_BEND_LINES_DOWN
 70
     0
 62
     7
  6
CENTER
  0
LAYER
  5
17C
330
2
100
AcDbSymbolTableRecord
100
AcDbLayerTableRecord
  2
VISIBLE
 70
     0
 62
     7
  6
CONTINUOUS
  0
ENDTAB
  0
TABLE
  2
STYLE
  5
3
330
0
100
AcDbSymbolTable
 70
    37
  0
STYLE
  5
11
330
3
100
AcDbSymbolTableRecord
100
AcDbTextStyleTableRecord
  2
STANDARD
 70
     0
 40
0.0
 41
1.0
 50
0.0
 71
     0
 42
2.5
  3
txt
  4

  0
STYLE
  5
6F
330
3
100
AcDbSymbolTableRecord
100
AcDbTextStyleTableRecord
  2
ONSHAPE-STANDARD
 70
     0
 40
0.0
 41
1.0
 50
0.0
 71
     0
 42
2.5
  3
ISOCP.SHX
  4

  0
STYLE
  5
71
330
3
100
AcDbSymbolTableRecord
100
AcDbTextStyleTableRecord
  2
ONSHAPE-STANDARD-DIMENSION
 70
     0
 40
0.0
 41
1.0
 50
0.0
 71
     0
 42
2.5
  3
ISOCP.SHX
  4

  0
STYLE
  5
FC
330
3
100
AcDbSymbolTableRecord
100
AcDbTextStyleTableRecord
  2
ONSHAPE-STANDARD-NOTESTYLE
 70
     0
 40
2.5
 41
1.0
 50
0.0
 71
     0
 42
2.5
  3
ARIsoP1.shx
  4

1001
ACAD
1000
ARIsoP1.shx
1071
        0
  0
STYLE
  5
142
330
3
100
AcDbSymbolTableRecord
100
AcDbTextStyleTableRecord
  2
ONSHAPE-STANDARD-VIEW-LABE
 70
     0
 40
2.5
 41
1.0
 50
0.0
 71
     0
 42
2.5
  3
ISOCP.SHX
  4

  0
STYLE
  5
1B5
330
3
100
AcDbSymbolTableRecord
100
AcDbTextStyleTableRecord
  2
_TCW_TXTSTY_B
 70
     0
 40
0.0
 41
0.93
 50
0.0
 71
     0
 42
2.5
  3
txt_____.ttf
  4

1001
ACAD
1000
Txt
1071
      290
  0
STYLE
  5
1B6
330
3
100
AcDbSymbolTableRecord
100
AcDbTextStyleTableRecord
  2
_TCW_TXTSTY_15
 70
     0
 40
0.0
 41
1.03
 50
0.0
 71
     0
 42
2.5
  3

  4

1001
ACAD
1000
Txt
1071
      290
  0
STYLE
  5
1B7
330
3
100
AcDbSymbolTableRecord
100
AcDbTextStyleTableRecord
  2
_TCW_TXTSTY_16
 70
     0
 40
0.0
 41
0.95
 50
0.0
 71
     0
 42
2.5
  3

  4

1001
ACAD
1000
Txt
1071
      290
  0
STYLE
  5
1B8
330
3
100
AcDbSymbolTableRecord
100
AcDbTextStyleTableRecord
  2
_TCW_TXTSTY_17
 70
     0
 40
0.0
 41
0.98
 50
0.0
 71
     0
 42
2.5
  3

  4

1001
ACAD
1000
Txt
1071
      290
  0
STYLE
  5
1B9
330
3
100
AcDbSymbolTableRecord
100
AcDbTextStyleTableRecord
  2
_TCW_TXTSTY_18
 70
     0
 40
0.0
 41
1.0
 50
0.0
 71
     0
 42
2.5
  3

  4

1001
ACAD
1000
Txt
1071
      290
  0
STYLE
  5
1BA
330
3
100
AcDbSymbolTableRecord
100
AcDbTextStyleTableRecord
  2
_TCW_TXTSTY_19
 70
     0
 40
0.0
 41
1.08
 50
0.0
 71
     0
 42
2.5
  3

  4

1001
ACAD
1000
Txt
1071
      290
  0
STYLE
  5
1BB
330
3
100
AcDbSymbolTableRecord
100
AcDbTextStyleTableRecord
  2
_TCW_TXTSTY_1A
 70
     0
 40
0.0
 41
0.99
 50
0.0
 71
     0
 42
2.5
  3

  4

1001
ACAD
1000
Txt
1071
      290
  0
STYLE
  5
1BC
330
3
100
AcDbSymbolTableRecord
100
AcDbTextStyleTableRecord
  2
_TCW_TXTSTY_1B
 70
     0
 40
0.0
 41
1.09
 50
0.0
 71
     0
 42
2.5
  3

  4

1001
ACAD
1000
Txt
1071
      290
  0
STYLE
  5
1BD
330
3
100
AcDbSymbolTableRecord
100
AcDbTextStyleTableRecord
  2
_TCW_TXTSTY_1C
 70
     0
 40
0.0
 41
0.97
 50
0.0
 71
     0
 42
2.5
  3

  4

1001
ACAD
1000
Txt
1071
      290
  0
STYLE
  5
1BE
330
3
100
AcDbSymbolTableRecord
100
AcDbTextStyleTableRecord
  2
_TCW_TXTSTY_1E
 70
     0
 40
0.0
 41
0.96
 50
0.0
 71
     0
 42
2.5
  3

  4

1001
ACAD
1000
Txt
1071
      290
  0
STYLE
  5
1BF
330
3
100
AcDbSymbolTableRecord
100
AcDbTextStyleTableRecord
  2
_TCW_TXTSTY_20
 70
     0
 40
0.0
 41
1.06
 50
0.0
 71
     0
 42
2.5
  3

  4

1001
ACAD
1000
Txt
1071
      290
  0
STYLE
  5
1C1
330
3
100
AcDbSymbolTableRecord
100
AcDbTextStyleTableRecord
  2
ONSHAPE-STANDARD-BOLD
 70
     0
 40
0.0
 41
1.0
 50
0.0
 71
     0
 42
2.5
  3
NotoSans-Bold.ttf
  4

1001
ACAD
1000
Noto Sans
1071
 33554432
  0
STYLE
  5
1C2
330
3
100
AcDbSymbolTableRecord
100
AcDbTextStyleTableRecord
  2
ONSHAPE-STANDARD-FIELDS
 70
     0
 40
0.0
 41
1.0
 50
0.0
 71
     0
 42
2.5
  3
NotoSans-Regular.ttf
  4

1001
ACAD
1000
Noto Sans
1071
        0
  0
STYLE
  5
1C3
330
3
100
AcDbSymbolTableRecord
100
AcDbTextStyleTableRecord
  2
ONSHAPE-STANDARD-TCFIELDS
 70
     0
 40
0.0
 41
1.0
 50
0.0
 71
     0
 42
2.5
  3
NotoSansTC-DemiLight.otf
  4

1001
ACAD
1000
Noto Sans TC
1071
        0
  0
STYLE
  5
1C4
330
3
100
AcDbSymbolTableRecord
100
AcDbTextStyleTableRecord
  2
ONSHAPE-STANDARD-SCFIELDS
 70
     0
 40
0.0
 41
1.0
 50
0.0
 71
     0
 42
2.5
  3
NotoSansSC-DemiLight.otf
  4

1001
ACAD
1000
Noto Sans SC
1071
        0
  0
STYLE
  5
1C5
330
3
100
AcDbSymbolTableRecord
100
AcDbTextStyleTableRecord
  2
ONSHAPE-STANDARD-KOREANFIE
 70
     0
 40
0.0
 41
1.0
 50
0.0
 71
     0
 42
2.5
  3
NotoSansKR-Regular.otf
  4

1001
ACAD
1000
Noto Sans KR
1071
        0
  0
STYLE
  5
1C6
330
3
100
AcDbSymbolTableRecord
100
AcDbTextStyleTableRecord
  2
TTFSTYLE
 70
     0
 40
0.0
 41
1.0
 50
0.0
 71
     0
 42
2.5
  3
Verdana.ttf
  4

1001
ACAD
1000
Verdana
1071
       34
  0
STYLE
  5
1C7
330
3
100
AcDbSymbolTableRecord
100
AcDbTextStyleTableRecord
  2
ONSHAPE-STANDARD-TABLE-DAT
 70
     0
 40
0.0
 41
1.0
 50
0.0
 71
     0
 42
2.5
  3
ISOCP.SHX
  4

  0
STYLE
  5
1C8
330
3
100
AcDbSymbolTableRecord
100
AcDbTextStyleTableRecord
  2
ONSHAPE-STANDARD-TABLE-TIT
 70
     0
 40
0.0
 41
1.0
 50
0.0
 71
     0
 42
2.5
  3
NotoSans-Bold.ttf
  4

1001
ACAD
1000
Noto Sans
1071
 33554432
  0
STYLE
  5
1C9
330
3
100
AcDbSymbolTableRecord
100
AcDbTextStyleTableRecord
  2
ONSHAPE-STANDARD-TABLE-HEA
 70
     0
 40
0.0
 41
1.0
 50
0.0
 71
     0
 42
2.5
  3
NotoSans-Bold.ttf
  4

1001
ACAD
1000
Noto Sans
1071
 33554432
  0
STYLE
  5
1CA
330
3
100
AcDbSymbolTableRecord
100
AcDbTextStyleTableRecord
  2
ONSHAPE-STANDARD-BOMTABLE-
 70
     0
 40
0.0
 41
1.0
 50
0.0
 71
     0
 42
2.5
  3
ISOCP.SHX
  4

  0
STYLE
  5
1CB
330
3
100
AcDbSymbolTableRecord
100
AcDbTextStyleTableRecord
  2
ONSHAPE-STANDARD-BOMTABLE0
 70
     0
 40
0.0
 41
1.0
 50
0.0
 71
     0
 42
2.5
  3
NotoSans-Bold.ttf
  4

1001
ACAD
1000
Noto Sans
1071
 33554432
  0
STYLE
  5
1CC
330
3
100
AcDbSymbolTableRecord
100
AcDbTextStyleTableRecord
  2
ONSHAPE-STANDARD-BOMTABLE1
 70
     0
 40
0.0
 41
1.0
 50
0.0
 71
     0
 42
2.5
  3
NotoSans-Bold.ttf
  4

1001
ACAD
1000
Noto Sans
1071
 33554432
  0
STYLE
  5
1CF
330
3
100
AcDbSymbolTableRecord
100
AcDbTextStyleTableRecord
  2
ONSHAPE-STANDARD-HOLE-CALL
 70
     0
 40
3.5
 41
1.0
 50
0.0
 71
     0
 42
2.5
  3
ISOCP.SHX
  4

1001
ACAD
1000
ISOCP.SHX
1071
        0
  0
STYLE
  5
1D0
330
3
100
AcDbSymbolTableRecord
100
AcDbTextStyleTableRecord
  2
ONSHAPE-STANDARD-HOLETABLE
 70
     0
 40
0.0
 41
1.0
 50
0.0
 71
     0
 42
2.5
  3
ISOCP.SHX
  4

  0
STYLE
  5
1D1
330
3
100
AcDbSymbolTableRecord
100
AcDbTextStyleTableRecord
  2
ONSHAPE-STANDARD-HOLETABL0
 70
     0
 40
0.0
 41
1.0
 50
0.0
 71
     0
 42
2.5
  3
NotoSans-Bold.ttf
  4

1001
ACAD
1000
Noto Sans
1071
 33554432
  0
STYLE
  5
1D2
330
3
100
AcDbSymbolTableRecord
100
AcDbTextStyleTableRecord
  2
ONSHAPE-STANDARD-HOLETABL1
 70
     0
 40
0.0
 41
1.0
 50
0.0
 71
     0
 42
2.5
  3
NotoSans-Bold.ttf
  4

1001
ACAD
1000
Noto Sans
1071
 33554432
  0
STYLE
  5
1D3
330
3
100
AcDbSymbolTableRecord
100
AcDbTextStyleTableRecord
  2
ONSHAPE-STANDARD-HOLE-TAG
 70
     0
 40
2.5
 41
1.0
 50
0.0
 71
     0
 42
2.5
  3
ISOCP.SHX
  4

1001
ACAD
1000
ISOCP.SHX
1071
        0
  0
STYLE
  5
1D4
330
3
100
AcDbSymbolTableRecord
100
AcDbTextStyleTableRecord
  2
ONSHAPE-STANDARD-REVISIONT
 70
     0
 40
0.0
 41
1.0
 50
0.0
 71
     0
 42
2.5
  3
ISOCP.SHX
  4

  0
STYLE
  5
1D5
330
3
100
AcDbSymbolTableRecord
100
AcDbTextStyleTableRecord
  2
ONSHAPE-STANDARD-REVISION0
 70
     0
 40
0.0
 41
1.0
 50
0.0
 71
     0
 42
2.5
  3
NotoSans-Bold.ttf
  4

1001
ACAD
1000
Noto Sans
1071
 33554432
  0
STYLE
  5
1D6
330
3
100
AcDbSymbolTableRecord
100
AcDbTextStyleTableRecord
  2
ONSHAPE-STANDARD-REVISION1
 70
     0
 40
0.0
 41
1.0
 50
0.0
 71
     0
 42
2.5
  3
NotoSans-Bold.ttf
  4

1001
ACAD
1000
Noto Sans
1071
 33554432
  0
STYLE
  5
1D7
330
3
100
AcDbSymbolTableRecord
100
AcDbTextStyleTableRecord
  2
ONSHAPE-STANDARD-REVISION-
 70
     0
 40
2.5
 41
1.0
 50
0.0
 71
     0
 42
2.5
  3
ISOCP.SHX
  4

1001
ACAD
1000
ISOCP.SHX
1071
        0
  0
ENDTAB
  0
TABLE
  2
VIEW
  5
6
330
0
100
AcDbSymbolTable
 70
     0
  0
ENDTAB
  0
TABLE
  2
UCS
  5
7
330
0
100
AcDbSymbolTable
 70
     0
  0
ENDTAB
  0
TABLE
  2
APPID
  5
9
330
0
100
AcDbSymbolTable
 70
     1
  0
APPID
  5
12
330
9
100
AcDbSymbolTableRecord
100
AcDbRegAppTableRecord
  2
ACAD
 70
     0
  0
ENDTAB
  0
TABLE
  2
DIMSTYLE
  5
A
330
0
100
AcDbSymbolTable
 70
    19
  0
DIMSTYLE
105
27
330
A
100
AcDbSymbolTableRecord
100
AcDbDimStyleTableRecord
  2
STANDARD
 70
     0
  3

  4

  5

  6

  7

 40
1.0
 41
0.18
 42
0.0625
 43
0.38
 44
0.18
 45
0.0
 46
0.0
 47
0.0
 48
0.0
140
0.18
141
0.09
142
0.0
143
25.4
144
1.0
145
0.0
146
1.0
147
0.09
 71
     0
 72
     0
 73
     1
 74
     1
 75
     0
 76
     0
 77
     0
 78
     0
170
     0
171
     2
172
     0
173
     0
174
     0
175
     0
176
     0
177
     0
178
     0
270
     2
271
     4
272
     4
273
     2
274
     2
340
11
275
     0
280
     0
281
     0
282
     0
283
     1
284
     0
285
     0
286
     0
287
     3
288
     0
  0
DIMSTYLE
105
70
330
A
100
AcDbSymbolTableRecord
100
AcDbDimStyleTableRecord
  2
ONSHAPE-ISO-25
 70
     0
  3

  4

  5

  6

  7

 40
1.0
 41
2.5
 42
0.625
 43
3.75
 44
1.25
 45
0.0
 46
0.0
 47
0.0
 48
0.0
140
3.5
141
2.5
142
0.0
143
0.03937007874016
144
1.0
145
0.0
146
1.0
147
0.625
 71
     0
 72
     0
 73
     0
 74
     0
 75
     0
 76
     0
 77
     1
 78
     8
170
     0
171
     3
172
     1
173
     0
174
     0
175
     0
176
     7
177
     7
178
     7
179
     1
270
     2
271
     2
272
     2
273
     2
274
     3
340
71
275
     0
280
     0
281
     0
282
     0
283
     0
284
     8
285
     0
286
     0
287
     3
288
     1
  0
DIMSTYLE
105
15B
102
{ACAD_REACTORS
330
160
330
16C
102
}
330
A
100
AcDbSymbolTableRecord
100
AcDbDimStyleTableRecord
  2
ONSHAPE-ISO-25$7
 70
     0
  3

  4

  5

  6

  7

 40
1.0
 41
2.5
 42
0.625
 43
3.75
 44
1.25
 45
0.0
 46
0.0
 47
0.0
 48
0.0
140
3.5
141
0.0
142
0.0
143
0.03937007874016
144
1.0
145
0.0
146
1.0
147
0.625
 71
     0
 72
     0
 73
     0
 74
     0
 75
     0
 76
     0
 77
     1
 78
     8
170
     0
171
     3
172
     1
173
     0
174
     0
175
     0
176
     7
177
     7
178
     7
179
     1
270
     2
271
     2
272
     2
273
     2
274
     3
340
71
275
     0
280
     0
281
     0
282
     0
283
     0
284
     8
285
     0
286
     0
287
     3
288
     1
  0
DIMSTYLE
105
1DA
330
A
100
AcDbSymbolTableRecord
100
AcDbDimStyleTableRecord
  2
ISO-25
 70
     0
  3

  4

  5

  6

  7

 40
1.0
 41
2.5
 42
0.625
 43
3.75
 44
1.25
 45
0.0
 46
0.0
 47
0.0
 48
0.0
140
2.5
141
2.5
142
0.0
143
0.03937007874016
144
1.0
145
0.0
146
1.0
147
0.625
 71
     0
 72
     0
 73
     0
 74
     0
 75
     0
 76
     0
 77
     1
 78
     8
170
     0
171
     3
172
     1
173
     0
174
     0
175
     0
176
     7
177
     7
178
     7
270
     2
271
     2
272
     2
273
     2
274
     3
340
11
275
     0
280
     0
281
     0
282
     0
283
     0
284
     8
285
     0
286
     0
287
     3
288
     1
  0
DIMSTYLE
105
1DD
330
A
100
AcDbSymbolTableRecord
100
AcDbDimStyleTableRecord
  2
ONSHAPE-ISO-25$3
 70
     0
  3

  4

  5

  6

  7

 40
1.0
 41
2.5
 42
0.625
 43
3.75
 44
1.25
 45
0.0
 46
0.0
 47
0.0
 48
0.0
140
3.5
141
0.0
142
0.0
143
0.03937007874016
144
1.0
145
0.0
146
1.0
147
0.625
 71
     0
 72
     0
 73
     0
 74
     0
 75
     0
 76
     0
 77
     1
 78
     8
170
     0
171
     3
172
     1
173
     0
174
     0
175
     0
176
     7
177
     7
178
     7
179
     1
270
     2
271
     2
272
     2
273
     2
274
     3
340
71
275
     0
280
     0
281
     0
282
     0
283
     0
284
     8
285
     0
286
     0
287
     3
288
     1
  0
DIMSTYLE
105
1DE
330
A
100
AcDbSymbolTableRecord
100
AcDbDimStyleTableRecord
  2
ONSHAPE-ISO-25$4
 70
     0
  3

  4

  5

  6

  7

 40
1.0
 41
2.5
 42
0.625
 43
3.75
 44
1.25
 45
0.0
 46
0.0
 47
0.0
 48
0.0
140
3.5
141
0.0
142
0.0
143
0.03937007874016
144
1.0
145
0.0
146
1.0
147
0.625
 71
     0
 72
     0
 73
     0
 74
     0
 75
     0
 76
     0
 77
     1
 78
     8
170
     0
171
     3
172
     1
173
     0
174
     0
175
     0
176
     7
177
     7
178
     7
179
     1
270
     2
271
     2
272
     2
273
     2
274
     3
340
71
275
     0
280
     0
281
     0
282
     0
283
     0
284
     8
285
     0
286
     0
287
     3
288
     1
  0
DIMSTYLE
105
1E0
330
A
100
AcDbSymbolTableRecord
100
AcDbDimStyleTableRecord
  2
ISO
 70
     0
  3

  4
"
  5

  6

  7

 40
1.0
 41
3.5
 42
1.0
 43
10.0
 44
1.0
 45
0.0
 46
0.0
 47
0.1
 48
0.1
140
3.5
141
0.0
142
0.0
143
0.03937
144
1.0
145
0.0
146
0.71
147
1.5
 71
     0
 72
     0
 73
     0
 74
     0
 75
     0
 76
     0
 77
     1
 78
     8
170
     0
171
     3
172
     1
173
     0
174
     0
175
     0
176
     7
177
     7
178
     7
270
     2
271
     2
272
     3
273
     2
274
     3
340
11
275
     0
280
     0
281
     0
282
     0
283
     0
284
     8
285
     0
286
     0
287
     3
288
     1
  0
DIMSTYLE
105
1E1
330
A
100
AcDbSymbolTableRecord
100
AcDbDimStyleTableRecord
  2
ISO$3
 70
     0
  3

  4
"
  5

  6

  7

 40
1.0
 41
3.5
 42
1.0
 43
10.0
 44
1.0
 45
0.0
 46
0.0
 47
0.1
 48
0.1
140
3.5
141
0.0
142
0.0
143
0.03937
144
1.0
145
0.0
146
0.71
147
1.5
 71
     0
 72
     0
 73
     0
 74
     1
 75
     0
 76
     0
 77
     1
 78
     8
170
     0
171
     3
172
     0
173
     0
174
     0
175
     0
176
     7
177
     7
178
     7
270
     2
271
     2
272
     3
273
     2
274
     3
340
11
275
     0
280
     0
281
     0
282
     0
283
     0
284
     8
285
     0
286
     0
288
     1
  0
DIMSTYLE
105
1E2
330
A
100
AcDbSymbolTableRecord
100
AcDbDimStyleTableRecord
  2
ISO$4
 70
     0
  3

  4
"
  5

  6

  7

 40
1.0
 41
3.5
 42
1.0
 43
10.0
 44
1.0
 45
0.0
 46
0.0
 47
0.1
 48
0.1
140
3.5
141
0.0
142
0.0
143
0.03937
144
1.0
145
0.0
146
0.71
147
1.5
 71
     0
 72
     0
 73
     0
 74
     0
 75
     0
 76
     0
 77
     1
 78
     8
170
     0
171
     3
172
     1
173
     0
174
     0
175
     0
176
     7
177
     7
178
     7
270
     2
271
     2
272
     3
273
     2
274
     3
340
11
275
     0
280
     0
281
     0
282
     0
283
     0
284
     8
285
     0
286
     0
287
     3
288
     1
  0
DIMSTYLE
105
1E3
330
A
100
AcDbSymbolTableRecord
100
AcDbDimStyleTableRecord
  2
ISO$6
 70
     0
  3

  4
"
  5

  6

  7

 40
1.0
 41
0.5
 42
1.0
 43
10.0
 44
1.0
 45
0.0
 46
0.0
 47
0.1
 48
0.1
140
3.5
141
0.0
142
0.0
143
0.03937
144
1.0
145
0.0
146
0.71
147
1.5
 71
     0
 72
     0
 73
     0
 74
     0
 75
     0
 76
     0
 77
     0
 78
     8
170
     0
171
     3
172
     1
173
     0
174
     0
175
     0
176
     7
177
     7
178
     7
270
     2
271
     2
272
     3
273
     2
274
     3
340
11
275
     0
280
     0
281
     0
282
     0
283
     0
284
     8
285
     0
286
     0
287
     3
288
     1
  0
DIMSTYLE
105
1E4
330
A
100
AcDbSymbolTableRecord
100
AcDbDimStyleTableRecord
  2
ISO$7
 70
     0
  3

  4
"
  5

  6

  7

 40
1.0
 41
3.5
 42
1.0
 43
10.0
 44
1.0
 45
0.0
 46
0.0
 47
0.1
 48
0.1
140
3.5
141
0.0
142
0.0
143
0.03937
144
1.0
145
0.0
146
0.71
147
1.5
 71
     0
 72
     0
 73
     0
 74
     0
 75
     0
 76
     0
 77
     1
 78
     8
170
     0
171
     3
172
     1
173
     0
174
     0
175
     0
176
     7
177
     7
178
     7
270
     2
271
     2
272
     3
273
     2
274
     3
340
11
275
     0
280
     0
281
     0
282
     0
283
     0
284
     8
285
     0
286
     0
287
     3
288
     1
  0
DIMSTYLE
105
1E5
330
A
100
AcDbSymbolTableRecord
100
AcDbDimStyleTableRecord
  2
ISO$SF
 70
     0
  3

  4
"
  5

  6

  7

 40
1.0
 41
3.5
 42
1.0
 43
10.0
 44
1.0
 45
0.0
 46
0.0
 47
0.1
 48
0.1
140
3.5
141
0.0
142
0.0
143
0.03937
144
1.0
145
0.0
146
0.71
147
1.5
 71
     0
 72
     0
 73
     0
 74
     0
 75
     1
 76
     1
 77
     1
 78
     8
170
     0
171
     3
172
     1
173
     0
174
     0
175
     0
176
     7
177
     7
178
     7
270
     2
271
     2
272
     3
273
     2
274
     3
340
11
275
     0
280
     0
281
     0
282
     0
283
     0
284
     8
285
     0
286
     0
287
     3
288
     1
  0
DIMSTYLE
105
1E6
330
A
100
AcDbSymbolTableRecord
100
AcDbDimStyleTableRecord
  2
ISO$SH
 70
     0
  3

  4
"
  5

  6

  7

 40
1.0
 41
3.5
 42
1.0
 43
10.0
 44
1.0
 45
0.0
 46
0.0
 47
0.1
 48
0.1
140
3.5
141
0.0
142
0.0
143
0.03937
144
2.0
145
0.0
146
0.71
147
1.5
 71
     0
 72
     0
 73
     0
 74
     0
 75
     1
 76
     1
 77
     1
 78
     8
170
     0
171
     3
172
     1
173
     1
174
     0
175
     0
176
     7
177
     7
178
     7
270
     2
271
     2
272
     3
273
     2
274
     3
340
11
275
     0
280
     0
281
     0
282
     0
283
     0
284
     8
285
     0
286
     0
287
     3
288
     1
  0
DIMSTYLE
105
1E7
330
A
100
AcDbSymbolTableRecord
100
AcDbDimStyleTableRecord
  2
ONSHAPE-ISO-25$0
 70
     0
  3

  4

  5

  6

  7

 40
1.0
 41
2.5
 42
0.625
 43
3.75
 44
1.25
 45
0.0
 46
0.0
 47
0.0
 48
0.0
140
3.5
141
2.5
142
0.0
143
0.03937
144
1.0
145
0.0
146
1.0
147
0.625
 71
     0
 72
     0
 73
     0
 74
     0
 75
     0
 76
     0
 77
     1
 78
     8
170
     0
171
     3
172
     1
173
     0
174
     0
175
     0
176
     7
177
     7
178
     7
179
     1
270
     2
271
     2
272
     2
273
     2
274
     3
340
71
275
     0
280
     0
281
     0
282
     0
283
     0
284
     8
285
     0
286
     0
287
     3
288
     1
  0
DIMSTYLE
105
1E8
330
A
100
AcDbSymbolTableRecord
100
AcDbDimStyleTableRecord
  2
ONSHAPE-ISO-25$2
 70
     0
  3

  4

  5

  6

  7

 40
1.0
 41
2.5
 42
0.625
 43
3.75
 44
1.25
 45
0.0
 46
0.0
 47
0.0
 48
0.0
140
3.5
141
2.5
142
0.0
143
0.03937
144
1.0
145
0.0
146
1.0
147
0.625
 71
     0
 72
     0
 73
     0
 74
     0
 75
     0
 76
     0
 77
     1
 78
     8
170
     0
171
     3
172
     1
173
     0
174
     0
175
     0
176
     7
177
     7
178
     7
179
     1
270
     2
271
     2
272
     2
273
     2
274
     3
340
71
275
     0
280
     0
281
     0
282
     0
283
     0
284
     8
285
     0
286
     0
287
     3
288
     1
  0
DIMSTYLE
105
1E9
330
A
100
AcDbSymbolTableRecord
100
AcDbDimStyleTableRecord
  2
ONSHAPE-ISO-25$6
 70
     0
  3

  4

  5

  6

  7

 40
1.0
 41
0.5
 42
0.625
 43
3.75
 44
1.25
 45
0.0
 46
0.0
 47
0.0
 48
0.0
140
3.5
141
2.5
142
0.0
143
0.03937
144
1.0
145
0.0
146
1.0
147
0.625
 71
     0
 72
     0
 73
     0
 74
     0
 75
     0
 76
     0
 77
     1
 78
     8
170
     0
171
     3
172
     1
173
     0
174
     0
175
     0
176
     7
177
     7
178
     7
179
     1
270
     2
271
     2
272
     2
273
     2
274
     3
340
71
275
     0
280
     0
281
     0
282
     0
283
     0
284
     8
285
     0
286
     0
287
     3
288
     1
  0
DIMSTYLE
105
1EA
330
A
100
AcDbSymbolTableRecord
100
AcDbDimStyleTableRecord
  2
ONSHAPE-STANDARD-GTOLERANC
 70
     0
  3

  4

  5

  6

  7

 40
1.0
 41
2.5
 42
0.625
 43
3.75
 44
1.25
 45
0.0
 46
0.0
 47
0.0
 48
0.0
140
3.5
141
2.5
142
0.0
143
0.03937007874016
144
1.0
145
0.0
146
1.0
147
0.625
 71
     0
 72
     0
 73
     0
 74
     0
 75
     0
 76
     0
 77
     1
 78
     8
170
     0
171
     3
172
     1
173
     0
174
     0
175
     0
176
     7
177
     7
178
     7
179
     1
270
     2
271
     2
272
     2
273
     2
274
     3
340
71
275
     0
280
     0
281
     0
282
     0
283
     0
284
     8
285
     0
286
     0
287
     3
288
     1
  0
DIMSTYLE
105
1EB
330
A
100
AcDbSymbolTableRecord
100
AcDbDimStyleTableRecord
  2
ONSHAPE-ORDINATESTYLE
 70
     0
  3

  4

  5

  6

  7

 40
1.0
 41
2.5
 42
0.625
 43
3.75
 44
1.25
 45
0.0
 46
0.0
 47
0.0
 48
0.0
140
3.5
141
2.5
142
0.0
143
0.03937007874016
144
1.0
145
0.0
146
1.0
147
0.625
 71
     0
 72
     0
 73
     0
 74
     0
 75
     0
 76
     0
 77
     1
 78
     8
170
     0
171
     3
172
     1
173
     0
174
     0
175
     0
176
     7
177
     7
178
     7
179
     1
270
     2
271
     2
272
     2
273
     2
274
     3
340
71
275
     0
280
     0
281
     0
282
     0
283
     0
284
     8
285
     0
286
     0
287
     3
288
     1
  0
DIMSTYLE
105
1EC
330
A
100
AcDbSymbolTableRecord
100
AcDbDimStyleTableRecord
  2
ONSHAPE-CHAMFERDIMSTYLE
 70
     0
  3

  4

  5

  6

  7

 40
1.0
 41
2.5
 42
0.625
 43
3.75
 44
1.25
 45
0.0
 46
0.0
 47
0.0
 48
0.0
140
3.5
141
2.5
142
0.0
143
0.03937007874016
144
1.0
145
0.0
146
1.0
147
0.625
 71
     0
 72
     0
 73
     0
 74
     0
 75
     0
 76
     0
 77
     1
 78
     8
170
     0
171
     3
172
     1
173
     0
174
     0
175
     0
176
     7
177
     7
178
     7
179
     1
270
     2
271
     2
272
     2
273
     2
274
     3
340
71
275
     0
280
     0
281
     0
282
     0
283
     0
284
     8
285
     0
286
     0
287
     3
288
     1
  0
ENDTAB
  0
TABLE
  2
BLOCK_RECORD
  5
1
330
0
100
AcDbSymbolTable
 70
     1
  0
BLOCK_RECORD
  5
1F
330
1
100
AcDbSymbolTableRecord
100
AcDbBlockTableRecord
  2
*MODEL_SPACE
  0
BLOCK_RECORD
  5
1B
330
1
100
AcDbSymbolTableRecord
100
AcDbBlockTableRecord
  2
*PAPER_SPACE
  0
ENDTAB
  0
ENDSEC
  0
SECTION
  2
BLOCKS
  0
BLOCK
  5
20
330
1F
100
AcDbEntity
  8
0
100
AcDbBlockBegin
  2
*MODEL_SPACE
 70
     0
 10
0.0
 20
0.0
 30
0.0
  3
*MODEL_SPACE
  1

  0
ENDBLK
  5
21
330
1F
100
AcDbEntity
  8
0
100
AcDbBlockEnd
  0
BLOCK
  5
1C
330
1B
100
AcDbEntity
 67
     1
  8
0
100
AcDbBlockBegin
  2
*PAPER_SPACE
 70
     0
 10
0.0
 20
0.0
 30
0.0
  3
*PAPER_SPACE
  1

  0
ENDBLK
  5
1D
330
1B
100
AcDbEntity
 67
     1
  8
0
100
AcDbBlockEnd
  0
ENDSEC
  0
SECTION
  2
ENTITIES
  0
LINE
  5
72
330
1F
100
AcDbEntity
  8
BORDER_FRAME
100
AcDbLine
 10
21.0
 20
20.0
 30
0.0
 11
21.0
 21
821.0
 31
0.0
  0
LINE
  5
76
330
1F
100
AcDbEntity
  8
BORDER_FRAME
100
AcDbLine
 10
21.0
 20
821.0
 30
0.0
 11
1170.0
 21
821.0
 31
0.0
  0
LINE
  5
77
330
1F
100
AcDbEntity
  8
BORDER_FRAME
100
AcDbLine
 10
1170.0
 20
821.0
 30
0.0
 11
1170.0
 21
20.0
 31
0.0
  0
LINE
  5
78
330
1F
100
AcDbEntity
  8
BORDER_FRAME
100
AcDbLine
 10
1170.0
 20
20.0
 30
0.0
 11
21.0
 21
20.0
 31
0.0
  0
LINE
  5
79
330
1F
100
AcDbEntity
  8
BORDER_ZONES
100
AcDbLine
 10
77.5
 20
20.0
 30
0.0
 11
77.5
 21
1.0
 31
0.0
  0
LINE
  5
7B
330
1F
100
AcDbEntity
  8
BORDER_ZONES
100
AcDbLine
 10
77.5
 20
821.0
 30
0.0
 11
77.5
 21
840.0
 31
0.0
  0
MTEXT
  5
7C
330
1F
100
AcDbEntity
  8
BORDER_ZONES
100
AcDbMText
 10
40.5
 20
10.0
 30
0.0
 40
6.0
 41
0.0
 71
     5
 72
     1
  1
16
  7
ONSHAPE-STANDARD
  0
MTEXT
  5
7E
330
1F
100
AcDbEntity
  8
BORDER_ZONES
100
AcDbMText
 10
40.5
 20
831.0
 30
0.0
 40
6.0
 41
0.0
 71
     5
 72
     1
  1
16
  7
ONSHAPE-STANDARD
  0
MTEXT
  5
7F
330
1F
100
AcDbEntity
  8
BORDER_ZONES
100
AcDbMText
 10
114.5
 20
10.0
 30
0.0
 40
6.0
 41
0.0
 71
     5
 72
     1
  1
15
  7
ONSHAPE-STANDARD
  0
MTEXT
  5
80
330
1F
100
AcDbEntity
  8
BORDER_ZONES
100
AcDbMText
 10
114.5
 20
831.0
 30
0.0
 40
6.0
 41
0.0
 71
     5
 72
     1
  1
15
  7
ONSHAPE-STANDARD
  0
LINE
  5
81
330
1F
100
AcDbEntity
  8
BORDER_ZONES
100
AcDbLine
 10
151.5
 20
20.0
 30
0.0
 11
151.5
 21
1.0
 31
0.0
  0
LINE
  5
82
330
1F
100
AcDbEntity
  8
BORDER_ZONES
100
AcDbLine
 10
151.5
 20
821.0
 30
0.0
 11
151.5
 21
840.0
 31
0.0
  0
MTEXT
  5
83
330
1F
100
AcDbEntity
  8
BORDER_ZONES
100
AcDbMText
 10
188.5
 20
10.0
 30
0.0
 40
6.0
 41
0.0
 71
     5
 72
     1
  1
14
  7
ONSHAPE-STANDARD
  0
MTEXT
  5
84
330
1F
100
AcDbEntity
  8
BORDER_ZONES
100
AcDbMText
 10
188.5
 20
831.0
 30
0.0
 40
6.0
 41
0.0
 71
     5
 72
     1
  1
14
  7
ONSHAPE-STANDARD
  0
LINE
  5
85
330
1F
100
AcDbEntity
  8
BORDER_ZONES
100
AcDbLine
 10
225.5
 20
20.0
 30
0.0
 11
225.5
 21
1.0
 31
0.0
  0
LINE
  5
86
330
1F
100
AcDbEntity
  8
BORDER_ZONES
100
AcDbLine
 10
225.5
 20
821.0
 30
0.0
 11
225.5
 21
840.0
 31
0.0
  0
MTEXT
  5
87
330
1F
100
AcDbEntity
  8
BORDER_ZONES
100
AcDbMText
 10
262.5
 20
10.0
 30
0.0
 40
6.0
 41
0.0
 71
     5
 72
     1
  1
13
  7
ONSHAPE-STANDARD
  0
MTEXT
  5
88
330
1F
100
AcDbEntity
  8
BORDER_ZONES
100
AcDbMText
 10
262.5
 20
831.0
 30
0.0
 40
6.0
 41
0.0
 71
     5
 72
     1
  1
13
  7
ONSHAPE-STANDARD
  0
LINE
  5
89
330
1F
100
AcDbEntity
  8
BORDER_ZONES
100
AcDbLine
 10
299.5
 20
20.0
 30
0.0
 11
299.5
 21
1.0
 31
0.0
  0
LINE
  5
8A
330
1F
100
AcDbEntity
  8
BORDER_ZONES
100
AcDbLine
 10
299.5
 20
821.0
 30
0.0
 11
299.5
 21
840.0
 31
0.0
  0
MTEXT
  5
8B
330
1F
100
AcDbEntity
  8
BORDER_ZONES
100
AcDbMText
 10
336.5
 20
10.0
 30
0.0
 40
6.0
 41
0.0
 71
     5
 72
     1
  1
12
  7
ONSHAPE-STANDARD
  0
MTEXT
  5
8C
330
1F
100
AcDbEntity
  8
BORDER_ZONES
100
AcDbMText
 10
336.5
 20
831.0
 30
0.0
 40
6.0
 41
0.0
 71
     5
 72
     1
  1
12
  7
ONSHAPE-STANDARD
  0
LINE
  5
8D
330
1F
100
AcDbEntity
  8
BORDER_ZONES
100
AcDbLine
 10
373.5
 20
20.0
 30
0.0
 11
373.5
 21
1.0
 31
0.0
  0
LINE
  5
8E
330
1F
100
AcDbEntity
  8
BORDER_ZONES
100
AcDbLine
 10
373.5
 20
821.0
 30
0.0
 11
373.5
 21
840.0
 31
0.0
  0
MTEXT
  5
8F
330
1F
100
AcDbEntity
  8
BORDER_ZONES
100
AcDbMText
 10
410.5
 20
10.0
 30
0.0
 40
6.0
 41
0.0
 71
     5
 72
     1
  1
11
  7
ONSHAPE-STANDARD
  0
MTEXT
  5
90
330
1F
100
AcDbEntity
  8
BORDER_ZONES
100
AcDbMText
 10
410.5
 20
831.0
 30
0.0
 40
6.0
 41
0.0
 71
     5
 72
     1
  1
11
  7
ONSHAPE-STANDARD
  0
LINE
  5
91
330
1F
100
AcDbEntity
  8
BORDER_ZONES
100
AcDbLine
 10
447.5
 20
20.0
 30
0.0
 11
447.5
 21
1.0
 31
0.0
  0
LINE
  5
92
330
1F
100
AcDbEntity
  8
BORDER_ZONES
100
AcDbLine
 10
447.5
 20
821.0
 30
0.0
 11
447.5
 21
840.0
 31
0.0
  0
MTEXT
  5
93
330
1F
100
AcDbEntity
  8
BORDER_ZONES
100
AcDbMText
 10
484.5
 20
10.0
 30
0.0
 40
6.0
 41
0.0
 71
     5
 72
     1
  1
10
  7
ONSHAPE-STANDARD
  0
MTEXT
  5
94
330
1F
100
AcDbEntity
  8
BORDER_ZONES
100
AcDbMText
 10
484.5
 20
831.0
 30
0.0
 40
6.0
 41
0.0
 71
     5
 72
     1
  1
10
  7
ONSHAPE-STANDARD
  0
LINE
  5
95
330
1F
100
AcDbEntity
  8
BORDER_ZONES
100
AcDbLine
 10
521.5
 20
20.0
 30
0.0
 11
521.5
 21
1.0
 31
0.0
  0
LINE
  5
96
330
1F
100
AcDbEntity
  8
BORDER_ZONES
100
AcDbLine
 10
521.5
 20
821.0
 30
0.0
 11
521.5
 21
840.0
 31
0.0
  0
MTEXT
  5
97
330
1F
100
AcDbEntity
  8
BORDER_ZONES
100
AcDbMText
 10
558.5
 20
10.0
 30
0.0
 40
6.0
 41
0.0
 71
     5
 72
     1
  1
9
  7
ONSHAPE-STANDARD
  0
MTEXT
  5
98
330
1F
100
AcDbEntity
  8
BORDER_ZONES
100
AcDbMText
 10
558.5
 20
831.0
 30
0.0
 40
6.0
 41
0.0
 71
     5
 72
     1
  1
9
  7
ONSHAPE-STANDARD
  0
LINE
  5
99
330
1F
100
AcDbEntity
  8
BORDER_ZONES
100
AcDbLine
 10
595.5
 20
20.0
 30
0.0
 11
595.5
 21
1.0
 31
0.0
  0
LINE
  5
9A
330
1F
100
AcDbEntity
  8
BORDER_ZONES
100
AcDbLine
 10
595.5
 20
821.0
 30
0.0
 11
595.5
 21
840.0
 31
0.0
  0
MTEXT
  5
9B
330
1F
100
AcDbEntity
  8
BORDER_ZONES
100
AcDbMText
 10
632.5
 20
10.0
 30
0.0
 40
6.0
 41
0.0
 71
     5
 72
     1
  1
8
  7
ONSHAPE-STANDARD
  0
MTEXT
  5
9C
330
1F
100
AcDbEntity
  8
BORDER_ZONES
100
AcDbMText
 10
632.5
 20
831.0
 30
0.0
 40
6.0
 41
0.0
 71
     5
 72
     1
  1
8
  7
ONSHAPE-STANDARD
  0
LINE
  5
9D
330
1F
100
AcDbEntity
  8
BORDER_ZONES
100
AcDbLine
 10
669.5
 20
20.0
 30
0.0
 11
669.5
 21
1.0
 31
0.0
  0
LINE
  5
9E
330
1F
100
AcDbEntity
  8
BORDER_ZONES
100
AcDbLine
 10
669.5
 20
821.0
 30
0.0
 11
669.5
 21
840.0
 31
0.0
  0
MTEXT
  5
9F
330
1F
100
AcDbEntity
  8
BORDER_ZONES
100
AcDbMText
 10
706.5
 20
10.0
 30
0.0
 40
6.0
 41
0.0
 71
     5
 72
     1
  1
7
  7
ONSHAPE-STANDARD
  0
MTEXT
  5
A0
330
1F
100
AcDbEntity
  8
BORDER_ZONES
100
AcDbMText
 10
706.5
 20
831.0
 30
0.0
 40
6.0
 41
0.0
 71
     5
 72
     1
  1
7
  7
ONSHAPE-STANDARD
  0
LINE
  5
A1
330
1F
100
AcDbEntity
  8
BORDER_ZONES
100
AcDbLine
 10
743.5
 20
20.0
 30
0.0
 11
743.5
 21
1.0
 31
0.0
  0
LINE
  5
A2
330
1F
100
AcDbEntity
  8
BORDER_ZONES
100
AcDbLine
 10
743.5
 20
821.0
 30
0.0
 11
743.5
 21
840.0
 31
0.0
  0
MTEXT
  5
A3
330
1F
100
AcDbEntity
  8
BORDER_ZONES
100
AcDbMText
 10
780.5
 20
10.0
 30
0.0
 40
6.0
 41
0.0
 71
     5
 72
     1
  1
6
  7
ONSHAPE-STANDARD
  0
MTEXT
  5
A4
330
1F
100
AcDbEntity
  8
BORDER_ZONES
100
AcDbMText
 10
780.5
 20
831.0
 30
0.0
 40
6.0
 41
0.0
 71
     5
 72
     1
  1
6
  7
ONSHAPE-STANDARD
  0
LINE
  5
A5
330
1F
100
AcDbEntity
  8
BORDER_ZONES
100
AcDbLine
 10
817.5
 20
20.0
 30
0.0
 11
817.5
 21
1.0
 31
0.0
  0
LINE
  5
A6
330
1F
100
AcDbEntity
  8
BORDER_ZONES
100
AcDbLine
 10
817.5
 20
821.0
 30
0.0
 11
817.5
 21
840.0
 31
0.0
  0
MTEXT
  5
A7
330
1F
100
AcDbEntity
  8
BORDER_ZONES
100
AcDbMText
 10
854.5
 20
10.0
 30
0.0
 40
6.0
 41
0.0
 71
     5
 72
     1
  1
5
  7
ONSHAPE-STANDARD
  0
MTEXT
  5
A8
330
1F
100
AcDbEntity
  8
BORDER_ZONES
100
AcDbMText
 10
854.5
 20
831.0
 30
0.0
 40
6.0
 41
0.0
 71
     5
 72
     1
  1
5
  7
ONSHAPE-STANDARD
  0
LINE
  5
A9
330
1F
100
AcDbEntity
  8
BORDER_ZONES
100
AcDbLine
 10
891.5
 20
20.0
 30
0.0
 11
891.5
 21
1.0
 31
0.0
  0
LINE
  5
AA
330
1F
100
AcDbEntity
  8
BORDER_ZONES
100
AcDbLine
 10
891.5
 20
821.0
 30
0.0
 11
891.5
 21
840.0
 31
0.0
  0
MTEXT
  5
AB
330
1F
100
AcDbEntity
  8
BORDER_ZONES
100
AcDbMText
 10
928.5
 20
10.0
 30
0.0
 40
6.0
 41
0.0
 71
     5
 72
     1
  1
4
  7
ONSHAPE-STANDARD
  0
MTEXT
  5
AC
330
1F
100
AcDbEntity
  8
BORDER_ZONES
100
AcDbMText
 10
928.5
 20
831.0
 30
0.0
 40
6.0
 41
0.0
 71
     5
 72
     1
  1
4
  7
ONSHAPE-STANDARD
  0
LINE
  5
AD
330
1F
100
AcDbEntity
  8
BORDER_ZONES
100
AcDbLine
 10
965.5
 20
20.0
 30
0.0
 11
965.5
 21
1.0
 31
0.0
  0
LINE
  5
AE
330
1F
100
AcDbEntity
  8
BORDER_ZONES
100
AcDbLine
 10
965.5
 20
821.0
 30
0.0
 11
965.5
 21
840.0
 31
0.0
  0
MTEXT
  5
AF
330
1F
100
AcDbEntity
  8
BORDER_ZONES
100
AcDbMText
 10
1002.5
 20
831.0
 30
0.0
 40
6.0
 41
0.0
 71
     5
 72
     1
  1
3
  7
ONSHAPE-STANDARD
  0
LINE
  5
B0
330
1F
100
AcDbEntity
  8
BORDER_ZONES
100
AcDbLine
 10
1039.5
 20
821.0
 30
0.0
 11
1039.5
 21
840.0
 31
0.0
  0
MTEXT
  5
B1
330
1F
100
AcDbEntity
  8
BORDER_ZONES
100
AcDbMText
 10
1076.5
 20
831.0
 30
0.0
 40
6.0
 41
0.0
 71
     5
 72
     1
  1
2
  7
ONSHAPE-STANDARD
  0
LINE
  5
B2
330
1F
100
AcDbEntity
  8
BORDER_ZONES
100
AcDbLine
 10
1113.5
 20
20.0
 30
0.0
 11
1113.5
 21
1.0
 31
0.0
  0
LINE
  5
B3
330
1F
100
AcDbEntity
  8
BORDER_ZONES
100
AcDbLine
 10
1113.5
 20
821.0
 30
0.0
 11
1113.5
 21
840.0
 31
0.0
  0
MTEXT
  5
B4
330
1F
100
AcDbEntity
  8
BORDER_ZONES
100
AcDbMText
 10
1150.5
 20
10.0
 30
0.0
 40
6.0
 41
0.0
 71
     5
 72
     1
  1
1
  7
ONSHAPE-STANDARD
  0
MTEXT
  5
B5
330
1F
100
AcDbEntity
  8
BORDER_ZONES
100
AcDbMText
 10
1150.5
 20
831.0
 30
0.0
 40
6.0
 41
0.0
 71
     5
 72
     1
  1
1
  7
ONSHAPE-STANDARD
  0
LINE
  5
B6
330
1F
100
AcDbEntity
  8
BORDER_ZONES
100
AcDbLine
 10
21.0
 20
70.5
 30
0.0
 11
2.0
 21
70.5
 31
0.0
  0
LINE
  5
B7
330
1F
100
AcDbEntity
  8
BORDER_ZONES
100
AcDbLine
 10
1170.0
 20
70.5
 30
0.0
 11
1189.0
 21
70.5
 31
0.0
  0
MTEXT
  5
B8
330
1F
100
AcDbEntity
  8
BORDER_ZONES
100
AcDbMText
 10
11.0
 20
35.5
 30
0.0
 40
6.0
 41
0.0
 71
     5
 72
     1
  1
A
  7
ONSHAPE-STANDARD
  0
MTEXT
  5
B9
330
1F
100
AcDbEntity
  8
BORDER_ZONES
100
AcDbMText
 10
1180.0
 20
35.5
 30
0.0
 40
6.0
 41
0.0
 71
     5
 72
     1
  1
A
  7
ONSHAPE-STANDARD
  0
MTEXT
  5
BA
330
1F
100
AcDbEntity
  8
BORDER_ZONES
100
AcDbMText
 10
11.0
 20
105.5
 30
0.0
 40
6.0
 41
0.0
 71
     5
 72
     1
  1
B
  7
ONSHAPE-STANDARD
  0
MTEXT
  5
BB
330
1F
100
AcDbEntity
  8
BORDER_ZONES
100
AcDbMText
 10
1180.0
 20
105.5
 30
0.0
 40
6.0
 41
0.0
 71
     5
 72
     1
  1
B
  7
ONSHAPE-STANDARD
  0
LINE
  5
BC
330
1F
100
AcDbEntity
  8
BORDER_ZONES
100
AcDbLine
 10
21.0
 20
140.5
 30
0.0
 11
2.0
 21
140.5
 31
0.0
  0
LINE
  5
BD
330
1F
100
AcDbEntity
  8
BORDER_ZONES
100
AcDbLine
 10
1170.0
 20
140.5
 30
0.0
 11
1189.0
 21
140.5
 31
0.0
  0
MTEXT
  5
BE
330
1F
100
AcDbEntity
  8
BORDER_ZONES
100
AcDbMText
 10
11.0
 20
175.5
 30
0.0
 40
6.0
 41
0.0
 71
     5
 72
     1
  1
C
  7
ONSHAPE-STANDARD
  0
MTEXT
  5
BF
330
1F
100
AcDbEntity
  8
BORDER_ZONES
100
AcDbMText
 10
1180.0
 20
175.5
 30
0.0
 40
6.0
 41
0.0
 71
     5
 72
     1
  1
C
  7
ONSHAPE-STANDARD
  0
LINE
  5
C0
330
1F
100
AcDbEntity
  8
BORDER_ZONES
100
AcDbLine
 10
21.0
 20
210.5
 30
0.0
 11
2.0
 21
210.5
 31
0.0
  0
LINE
  5
C1
330
1F
100
AcDbEntity
  8
BORDER_ZONES
100
AcDbLine
 10
1170.0
 20
210.5
 30
0.0
 11
1189.0
 21
210.5
 31
0.0
  0
MTEXT
  5
C2
330
1F
100
AcDbEntity
  8
BORDER_ZONES
100
AcDbMText
 10
11.0
 20
245.5
 30
0.0
 40
6.0
 41
0.0
 71
     5
 72
     1
  1
D
  7
ONSHAPE-STANDARD
  0
MTEXT
  5
C3
330
1F
100
AcDbEntity
  8
BORDER_ZONES
100
AcDbMText
 10
1180.0
 20
245.5
 30
0.0
 40
6.0
 41
0.0
 71
     5
 72
     1
  1
D
  7
ONSHAPE-STANDARD
  0
LINE
  5
C4
330
1F
100
AcDbEntity
  8
BORDER_ZONES
100
AcDbLine
 10
21.0
 20
280.5
 30
0.0
 11
2.0
 21
280.5
 31
0.0
  0
LINE
  5
C5
330
1F
100
AcDbEntity
  8
BORDER_ZONES
100
AcDbLine
 10
1170.0
 20
280.5
 30
0.0
 11
1189.0
 21
280.5
 31
0.0
  0
MTEXT
  5
C6
330
1F
100
AcDbEntity
  8
BORDER_ZONES
100
AcDbMText
 10
11.0
 20
315.5
 30
0.0
 40
6.0
 41
0.0
 71
     5
 72
     1
  1
E
  7
ONSHAPE-STANDARD
  0
MTEXT
  5
C7
330
1F
100
AcDbEntity
  8
BORDER_ZONES
100
AcDbMText
 10
1180.0
 20
315.5
 30
0.0
 40
6.0
 41
0.0
 71
     5
 72
     1
  1
E
  7
ONSHAPE-STANDARD
  0
LINE
  5
C8
330
1F
100
AcDbEntity
  8
BORDER_ZONES
100
AcDbLine
 10
21.0
 20
350.5
 30
0.0
 11
2.0
 21
350.5
 31
0.0
  0
LINE
  5
C9
330
1F
100
AcDbEntity
  8
BORDER_ZONES
100
AcDbLine
 10
1170.0
 20
350.5
 30
0.0
 11
1189.0
 21
350.5
 31
0.0
  0
MTEXT
  5
CA
330
1F
100
AcDbEntity
  8
BORDER_ZONES
100
AcDbMText
 10
11.0
 20
385.5
 30
0.0
 40
6.0
 41
0.0
 71
     5
 72
     1
  1
F
  7
ONSHAPE-STANDARD
  0
MTEXT
  5
CB
330
1F
100
AcDbEntity
  8
BORDER_ZONES
100
AcDbMText
 10
1180.0
 20
385.5
 30
0.0
 40
6.0
 41
0.0
 71
     5
 72
     1
  1
F
  7
ONSHAPE-STANDARD
  0
LINE
  5
CC
330
1F
100
AcDbEntity
  8
BORDER_ZONES
100
AcDbLine
 10
21.0
 20
420.5
 30
0.0
 11
2.0
 21
420.5
 31
0.0
  0
LINE
  5
CD
330
1F
100
AcDbEntity
  8
BORDER_ZONES
100
AcDbLine
 10
1170.0
 20
420.5
 30
0.0
 11
1189.0
 21
420.5
 31
0.0
  0
MTEXT
  5
CE
330
1F
100
AcDbEntity
  8
BORDER_ZONES
100
AcDbMText
 10
11.0
 20
455.5
 30
0.0
 40
6.0
 41
0.0
 71
     5
 72
     1
  1
G
  7
ONSHAPE-STANDARD
  0
MTEXT
  5
CF
330
1F
100
AcDbEntity
  8
BORDER_ZONES
100
AcDbMText
 10
1180.0
 20
455.5
 30
0.0
 40
6.0
 41
0.0
 71
     5
 72
     1
  1
G
  7
ONSHAPE-STANDARD
  0
LINE
  5
D0
330
1F
100
AcDbEntity
  8
BORDER_ZONES
100
AcDbLine
 10
21.0
 20
490.5
 30
0.0
 11
2.0
 21
490.5
 31
0.0
  0
LINE
  5
D1
330
1F
100
AcDbEntity
  8
BORDER_ZONES
100
AcDbLine
 10
1170.0
 20
490.5
 30
0.0
 11
1189.0
 21
490.5
 31
0.0
  0
MTEXT
  5
D2
330
1F
100
AcDbEntity
  8
BORDER_ZONES
100
AcDbMText
 10
11.0
 20
525.5
 30
0.0
 40
6.0
 41
0.0
 71
     5
 72
     1
  1
H
  7
ONSHAPE-STANDARD
  0
MTEXT
  5
D3
330
1F
100
AcDbEntity
  8
BORDER_ZONES
100
AcDbMText
 10
1180.0
 20
525.5
 30
0.0
 40
6.0
 41
0.0
 71
     5
 72
     1
  1
H
  7
ONSHAPE-STANDARD
  0
LINE
  5
D4
330
1F
100
AcDbEntity
  8
BORDER_ZONES
100
AcDbLine
 10
21.0
 20
560.5
 30
0.0
 11
2.0
 21
560.5
 31
0.0
  0
LINE
  5
D5
330
1F
100
AcDbEntity
  8
BORDER_ZONES
100
AcDbLine
 10
1170.0
 20
560.5
 30
0.0
 11
1189.0
 21
560.5
 31
0.0
  0
MTEXT
  5
D6
330
1F
100
AcDbEntity
  8
BORDER_ZONES
100
AcDbMText
 10
11.0
 20
595.5
 30
0.0
 40
6.0
 41
0.0
 71
     5
 72
     1
  1
I
  7
ONSHAPE-STANDARD
  0
MTEXT
  5
D7
330
1F
100
AcDbEntity
  8
BORDER_ZONES
100
AcDbMText
 10
1180.0
 20
595.5
 30
0.0
 40
6.0
 41
0.0
 71
     5
 72
     1
  1
I
  7
ONSHAPE-STANDARD
  0
LINE
  5
D8
330
1F
100
AcDbEntity
  8
BORDER_ZONES
100
AcDbLine
 10
21.0
 20
630.5
 30
0.0
 11
2.0
 21
630.5
 31
0.0
  0
LINE
  5
D9
330
1F
100
AcDbEntity
  8
BORDER_ZONES
100
AcDbLine
 10
1170.0
 20
630.5
 30
0.0
 11
1189.0
 21
630.5
 31
0.0
  0
MTEXT
  5
DA
330
1F
100
AcDbEntity
  8
BORDER_ZONES
100
AcDbMText
 10
11.0
 20
665.5
 30
0.0
 40
6.0
 41
0.0
 71
     5
 72
     1
  1
J
  7
ONSHAPE-STANDARD
  0
MTEXT
  5
DB
330
1F
100
AcDbEntity
  8
BORDER_ZONES
100
AcDbMText
 10
1180.0
 20
665.5
 30
0.0
 40
6.0
 41
0.0
 71
     5
 72
     1
  1
J
  7
ONSHAPE-STANDARD
  0
LINE
  5
DC
330
1F
100
AcDbEntity
  8
BORDER_ZONES
100
AcDbLine
 10
21.0
 20
700.5
 30
0.0
 11
2.0
 21
700.5
 31
0.0
  0
LINE
  5
DD
330
1F
100
AcDbEntity
  8
BORDER_ZONES
100
AcDbLine
 10
1170.0
 20
700.5
 30
0.0
 11
1189.0
 21
700.5
 31
0.0
  0
MTEXT
  5
DE
330
1F
100
AcDbEntity
  8
BORDER_ZONES
100
AcDbMText
 10
11.0
 20
735.5
 30
0.0
 40
6.0
 41
0.0
 71
     5
 72
     1
  1
K
  7
ONSHAPE-STANDARD
  0
MTEXT
  5
DF
330
1F
100
AcDbEntity
  8
BORDER_ZONES
100
AcDbMText
 10
1180.0
 20
735.5
 30
0.0
 40
6.0
 41
0.0
 71
     5
 72
     1
  1
K
  7
ONSHAPE-STANDARD
  0
LINE
  5
E0
330
1F
100
AcDbEntity
  8
BORDER_ZONES
100
AcDbLine
 10
21.0
 20
770.5
 30
0.0
 11
2.0
 21
770.5
 31
0.0
  0
LINE
  5
E1
330
1F
100
AcDbEntity
  8
BORDER_ZONES
100
AcDbLine
 10
1170.0
 20
770.5
 30
0.0
 11
1189.0
 21
770.5
 31
0.0
  0
MTEXT
  5
E2
330
1F
100
AcDbEntity
  8
BORDER_ZONES
100
AcDbMText
 10
11.0
 20
805.5
 30
0.0
 40
6.0
 41
0.0
 71
     5
 72
     1
  1
L
  7
ONSHAPE-STANDARD
  0
MTEXT
  5
E3
330
1F
100
AcDbEntity
  8
BORDER_ZONES
100
AcDbMText
 10
1180.0
 20
805.5
 30
0.0
 40
6.0
 41
0.0
 71
     5
 72
     1
  1
L
  7
ONSHAPE-STANDARD
  0
POLYLINE
  5
E4
330
1F
100
AcDbEntity
  8
0
  6
CONTINUOUS
 62
     7
100
AcDb2dPolyline
 66
     1
 10
0.0
 20
0.0
 30
0.0
 70
   128
 40
0.0488342270255089
 41
0.0488342270255089
  0
VERTEX
  5
205
330
E4
100
AcDbEntity
  8
0
  6
CONTINUOUS
 62
     7
100
AcDbVertex
100
AcDb2dVertex
 10
1163.077444
 20
25.66517
 30
0.0
  0
VERTEX
  5
206
330
E4
100
AcDbEntity
  8
0
  6
CONTINUOUS
 62
     7
100
AcDbVertex
100
AcDb2dVertex
 10
1156.312702
 20
24.635758
 30
0.0
  0
SEQEND
  5
229
330
E4
100
AcDbEntity
  8
0
  6
CONTINUOUS
 62
     7
  0
LINE
  5
E5
330
1F
100
AcDbEntity
  8
0
  6
CENTER
 62
   250
100
AcDbLine
 10
1169.100017
 20
23.459288
 30
0.0
 11
1163.968727
 21
23.459288
 31
0.0
  0
LINE
  5
E7
330
1F
100
AcDbEntity
  8
0
  6
CENTER
 62
   250
100
AcDbLine
 10
1163.437049
 20
23.459288
 30
0.0
 11
1155.843484
 21
23.459288
 31
0.0
  0
POLYLINE
  5
E8
330
1F
100
AcDbEntity
  8
0
  6
CONTINUOUS
 62
     7
100
AcDb2dPolyline
 66
     1
 10
0.0
 20
0.0
 30
0.0
 70
   128
 40
0.0488342270255089
 41
0.0488342270255089
  0
VERTEX
  5
207
330
E8
100
AcDbEntity
  8
0
  6
CONTINUOUS
 62
     7
100
AcDbVertex
100
AcDb2dVertex
 10
1156.312702
 20
22.282817
 30
0.0
  0
VERTEX
  5
208
330
E8
100
AcDbEntity
  8
0
  6
CONTINUOUS
 62
     7
100
AcDbVertex
100
AcDb2dVertex
 10
1163.077444
 20
21.253405
 30
0.0
  0
SEQEND
  5
22A
330
E8
100
AcDbEntity
  8
0
  6
CONTINUOUS
 62
     7
  0
POLYLINE
  5
E9
330
1F
100
AcDbEntity
  8
0
  6
CONTINUOUS
 62
     7
100
AcDb2dPolyline
 66
     1
 10
0.0
 20
0.0
 30
0.0
 70
   128
 40
0.0488342270255089
 41
0.0488342270255089
  0
VERTEX
  5
209
330
E9
100
AcDbEntity
  8
0
  6
CONTINUOUS
 62
     7
100
AcDbVertex
100
AcDb2dVertex
 10
1156.312702
 20
24.635758
 30
0.0
  0
VERTEX
  5
20A
330
E9
100
AcDbEntity
  8
0
  6
CONTINUOUS
 62
     7
100
AcDbVertex
100
AcDb2dVertex
 10
1156.312702
 20
22.282817
 30
0.0
  0
SEQEND
  5
22B
330
E9
100
AcDbEntity
  8
0
  6
CONTINUOUS
 62
     7
  0
POLYLINE
  5
EA
330
1F
100
AcDbEntity
  8
0
  6
CONTINUOUS
 62
     7
100
AcDb2dPolyline
 66
     1
 10
0.0
 20
0.0
 30
0.0
 70
   128
 40
0.0488342270255089
 41
0.0488342270255089
  0
VERTEX
  5
20B
330
EA
100
AcDbEntity
  8
0
  6
CONTINUOUS
 62
     7
100
AcDbVertex
100
AcDb2dVertex
 10
1163.077444
 20
21.253405
 30
0.0
  0
VERTEX
  5
20C
330
EA
100
AcDbEntity
  8
0
  6
CONTINUOUS
 62
     7
100
AcDbVertex
100
AcDb2dVertex
 10
1163.077444
 20
25.66517
 30
0.0
  0
SEQEND
  5
22C
330
EA
100
AcDbEntity
  8
0
  6
CONTINUOUS
 62
     7
  0
LINE
  5
EB
330
1F
100
AcDbEntity
  8
0
  6
CENTER
 62
   250
100
AcDbLine
 10
1166.600017
 20
25.959288
 30
0.0
 11
1166.600017
 21
20.959288
 31
0.0
  0
POLYLINE
  5
EC
330
1F
100
AcDbEntity
  8
0
  6
CONTINUOUS
 62
     7
100
AcDb2dPolyline
 66
     1
 10
0.0
 20
0.0
 30
0.0
 70
     1
  0
VERTEX
  5
20D
330
EC
100
AcDbEntity
  8
0
  6
CONTINUOUS
 62
     7
100
AcDbVertex
100
AcDb2dVertex
 10
1168.805899
 20
23.459288
 30
0.0
 40
0.0488342270255089
 41
0.0488342270255089
 42
0.4142135623731
  0
VERTEX
  5
20E
330
EC
100
AcDbEntity
  8
0
  6
CONTINUOUS
 62
     7
100
AcDbVertex
100
AcDb2dVertex
 10
1166.600017
 20
25.66517
 30
0.0
 40
0.0488342270255089
 41
0.0488342270255089
 42
2.414213562373
  0
VERTEX
  5
20F
330
EC
100
AcDbEntity
  8
0
  6
CONTINUOUS
 62
     7
100
AcDbVertex
100
AcDb2dVertex
 10
1168.805899
 20
23.459288
 30
0.0
 40
0.0488342270255089
 41
0.0488342270255089
  0
SEQEND
  5
22D
330
EC
100
AcDbEntity
  8
0
  6
CONTINUOUS
 62
     7
  0
POLYLINE
  5
ED
330
1F
100
AcDbEntity
  8
0
  6
CONTINUOUS
 62
     7
100
AcDb2dPolyline
 66
     1
 10
0.0
 20
0.0
 30
0.0
 70
     1
  0
VERTEX
  5
210
330
ED
100
AcDbEntity
  8
0
  6
CONTINUOUS
 62
     7
100
AcDbVertex
100
AcDb2dVertex
 10
1167.776487
 20
23.459288
 30
0.0
 40
0.0488342270255089
 41
0.0488342270255089
 42
0.4142135623731
  0
VERTEX
  5
211
330
ED
100
AcDbEntity
  8
0
  6
CONTINUOUS
 62
     7
100
AcDbVertex
100
AcDb2dVertex
 10
1166.600017
 20
24.635758
 30
0.0
 40
0.0488342270255089
 41
0.0488342270255089
 42
2.414213562373
  0
VERTEX
  5
212
330
ED
100
AcDbEntity
  8
0
  6
CONTINUOUS
 62
     7
100
AcDbVertex
100
AcDb2dVertex
 10
1167.776487
 20
23.459288
 30
0.0
 40
0.0488342270255089
 41
0.0488342270255089
  0
SEQEND
  5
22E
330
ED
100
AcDbEntity
  8
0
  6
CONTINUOUS
 62
     7
  0
LINE
  5
EE
330
1F
100
AcDbEntity
  8
0
  6
CONTINUOUS
 62
   250
100
AcDbLine
 10
970.0
 20
20.0
 30
0.0
 11
1170.0
 21
20.0
 31
0.0
  0
LINE
  5
EF
330
1F
100
AcDbEntity
  8
0
  6
CONTINUOUS
 62
   250
100
AcDbLine
 10
970.0
 20
20.0
 30
0.0
 11
970.0
 21
70.0
 31
0.0
  0
LINE
  5
F0
330
1F
100
AcDbEntity
  8
0
  6
CONTINUOUS
 62
   250
100
AcDbLine
 10
1000.0
 20
40.0
 30
0.0
 11
1170.0
 21
40.0
 31
0.0
  0
LINE
  5
F1
330
1F
100
AcDbEntity
  8
0
  6
CONTINUOUS
 62
   250
100
AcDbLine
 10
970.0
 20
50.0
 30
0.0
 11
1000.0
 21
50.0
 31
0.0
  0
LINE
  5
F2
330
1F
100
AcDbEntity
  8
0
  6
CONTINUOUS
 62
   250
100
AcDbLine
 10
1048.0
 20
50.0
 30
0.0
 11
1065.0
 21
50.0
 31
0.0
  0
LINE
  5
F3
330
1F
100
AcDbEntity
  8
0
  6
CONTINUOUS
 62
   250
100
AcDbLine
 10
970.0
 20
60.0
 30
0.0
 11
1170.0
 21
60.0
 31
0.0
  0
LINE
  5
F4
330
1F
100
AcDbEntity
  8
0
  6
CONTINUOUS
 62
   250
100
AcDbLine
 10
970.0
 20
70.0
 30
0.0
 11
1170.0
 21
70.0
 31
0.0
  0
LINE
  5
F5
330
1F
100
AcDbEntity
  8
0
  6
CONTINUOUS
 62
   250
100
AcDbLine
 10
1000.0
 20
20.0
 30
0.0
 11
1000.0
 21
70.0
 31
0.0
  0
LINE
  5
F6
330
1F
100
AcDbEntity
  8
0
  6
CONTINUOUS
 62
   250
100
AcDbLine
 10
1048.0
 20
20.0
 30
0.0
 11
1048.0
 21
70.0
 31
0.0
  0
LINE
  5
F7
330
1F
100
AcDbEntity
  8
0
  6
CONTINUOUS
 62
   250
100
AcDbLine
 10
1065.0
 20
20.0
 30
0.0
 11
1065.0
 21
70.0
 31
0.0
  0
LINE
  5
F8
330
1F
100
AcDbEntity
  8
0
  6
CONTINUOUS
 62
   250
100
AcDbLine
 10
1115.0
 20
60.0
 30
0.0
 11
1115.0
 21
70.0
 31
0.0
  0
LINE
  5
F9
330
1F
100
AcDbEntity
  8
0
  6
CONTINUOUS
 62
   250
100
AcDbLine
 10
1155.0
 20
20.0
 30
0.0
 11
1155.0
 21
40.0
 31
0.0
  0
LINE
  5
FA
330
1F
100
AcDbEntity
  8
0
  6
CONTINUOUS
 62
   250
100
AcDbLine
 10
1170.0
 20
20.0
 30
0.0
 11
1170.0
 21
70.0
 31
0.0
  0
TEXT
  5
FB
330
1F
100
AcDbEntity
  8
0
  6
CONTINUOUS
 62
     7
100
AcDbText
 10
1001.222583884316
 20
36.05000001589457
 30
0.0
 40
1.3
  1
ltalnos lletrs/General edge cond.
 41
1.036
 51
0.0000187239675142
  7
ONSHAPE-STANDARD-NOTESTYLE
100
AcDbText
  0
TEXT
  5
FD
330
1F
100
AcDbEntity
  8
0
  6
CONTINUOUS
 62
     7
100
AcDbText
 10
1048.199187807324
 20
37.42499998410543
 30
0.0
 40
1.5
  1
Mretarny/
 41
1.031
 51
0.0000187239675142
  7
ONSHAPE-STANDARD-NOTESTYLE
100
AcDbText
  0
TEXT
  5
FE
330
1F
100
AcDbEntity
  8
0
  6
CONTINUOUS
 62
     7
100
AcDbText
 10
1051.676824819475
 20
34.87499998410543
 30
0.0
 40
1.5
  1
Scale:
 41
0.9499999999999998
 51
0.0000187239675142
  7
ONSHAPE-STANDARD-NOTESTYLE
100
AcDbText
  0
TEXT
  5
FF
330
1F
100
AcDbEntity
  8
0
  6
CONTINUOUS
 62
     7
100
AcDbText
 10
1155.785216448211
 20
37.42499998410543
 30
0.0
 40
1.5
  1
Lapszm/
 41
0.989
 51
0.0000187239675142
  7
ONSHAPE-STANDARD-NOTESTYLE
100
AcDbText
  0
TEXT
  5
100
330
1F
100
AcDbEntity
  8
0
  6
CONTINUOUS
 62
     7
100
AcDbText
 10
1157.482015295545
 20
34.87499998410543
 30
0.0
 40
1.5
  1
Sheet:
 41
1.008
 51
0.0000187239675142
  7
ONSHAPE-STANDARD-NOTESTYLE
100
AcDbText
  0
TEXT
  5
101
330
1F
100
AcDbEntity
  8
0
  6
CONTINUOUS
 62
     7
100
AcDbText
 10
1066.222708161167
 20
37.64999998410543
 30
0.0
 40
1.5
  1
Rajzszm/Drawing Number:
 41
0.9369999999999999
 51
0.0000187239675142
  7
ONSHAPE-STANDARD-NOTESTYLE
100
AcDbText
  0
TEXT
  5
102
330
1F
100
AcDbEntity
  8
0
  6
CONTINUOUS
 62
     7
100
AcDbText
 10
1001.222512901778
 20
56.35000001589457
 30
0.0
 40
1.4
  1
ltalnos trsek/
 41
1.079
 51
0.0000187239675142
  7
ONSHAPE-STANDARD-NOTESTYLE
100
AcDbText
  0
TEXT
  5
103
330
1F
100
AcDbEntity
  8
0
  6
CONTINUOUS
 62
     7
100
AcDbText
 10
1001.222546749333
 20
53.50000001589457
 30
0.0
 40
1.4
  1
General tolerances: ISO 2768-m
 41
0.9919999999999999
 51
0.0000187239675142
  7
ONSHAPE-STANDARD-NOTESTYLE
100
AcDbText
  0
TEXT
  5
104
330
1F
100
AcDbEntity
  8
0
  6
CONTINUOUS
 62
     7
100
AcDbText
 10
1001.222486949
 20
50.65000001589457
 30
0.0
 40
1.4
  1
Alak- s helyzettrsek/
 41
1.091
 51
0.0000187239675142
  7
ONSHAPE-STANDARD-NOTESTYLE
100
AcDbText
  0
TEXT
  5
105
330
1F
100
AcDbEntity
  8
0
  6
CONTINUOUS
 62
     7
100
AcDbText
 10
1001.22255777375
 20
47.80000001589458
 30
0.0
 40
1.4
  1
Geometric tolerances: ISO 2768-K
 41
0.977
 51
0.0000187239675142
  7
ONSHAPE-STANDARD-NOTESTYLE
100
AcDbText
  0
TEXT
  5
106
330
1F
100
AcDbEntity
  8
0
  6
CONTINUOUS
 62
     7
100
AcDbText
 10
1001.222559288522
 20
44.95000001589457
 30
0.0
 40
1.4
  1
Trsek s illesztsek/
 41
1.09
 51
0.0000187239675142
  7
ONSHAPE-STANDARD-NOTESTYLE
100
AcDbText
  0
TEXT
  5
107
330
1F
100
AcDbEntity
  8
0
  6
CONTINUOUS
 62
     7
100
AcDbText
 10
1001.222615466343
 20
42.10000001589457
 30
0.0
 40
1.4
  1
Tolerances and fit classes: ISO 286
 41
1.032
 51
0.0000187239675142
  7
ONSHAPE-STANDARD-NOTESTYLE
100
AcDbText
  0
TEXT
  5
108
330
1F
100
AcDbEntity
  8
0
  6
CONTINUOUS
 62
     7
100
AcDbText
 10
1050.050168143865
 20
47.64999998410542
 30
0.0
 40
1.5
  1
Lap/Page:
 41
0.981
 51
0.0000187239675142
  7
ONSHAPE-STANDARD-NOTESTYLE
100
AcDbText
  0
TEXT
  5
109
330
1F
100
AcDbEntity
  8
0
  6
CONTINUOUS
 62
     7
100
AcDbText
 10
971.2225966483334
 20
57.55000001589458
 30
0.0
 40
1.5
  1
Ellenr/Approver: 
 41
0.997
 51
0.0000187239675142
  7
ONSHAPE-STANDARD-NOTESTYLE
100
AcDbText
  0
TEXT
  5
10A
330
1F
100
AcDbEntity
  8
0
  6
CONTINUOUS
 62
     7
100
AcDbText
 10
1048.42987354
 20
57.64999998410542
 30
0.0
 40
1.25
  1
Verzi/Version:
 41
0.978
 51
0.0000187239675142
  7
ONSHAPE-STANDARD-NOTESTYLE
100
AcDbText
  0
TEXT
  5
10B
330
1F
100
AcDbEntity
  8
0
  6
CONTINUOUS
 62
     7
100
AcDbText
 10
1066.222800934261
 20
57.64999998410542
 30
0.0
 40
1.5
  1
Megnevezs/Description:
 41
0.967
 51
0.0000187239675142
  7
ONSHAPE-STANDARD-NOTESTYLE
100
AcDbText
  0
TEXT
  5
10C
330
1F
100
AcDbEntity
  8
0
  6
CONTINUOUS
 62
     7
100
AcDbText
 10
971.2225236265882
 20
67.55000001589457
 30
0.0
 40
1.5
  1
Tervez/Designer:
 41
0.989
 51
0.0000187239675142
  7
ONSHAPE-STANDARD-NOTESTYLE
100
AcDbText
  0
TEXT
  5
10D
330
1F
100
AcDbEntity
  8
0
  6
CONTINUOUS
 62
     7
100
AcDbText
 10
1001.222571873267
 20
67.55000001589457
 30
0.0
 40
1.5
  1
Felletkezels/Surf. treatment
 41
1.061
 51
0.0000187239675142
  7
ONSHAPE-STANDARD-NOTESTYLE
100
AcDbText
  0
TEXT
  5
10E
330
1F
100
AcDbEntity
  8
0
  6
CONTINUOUS
 62
     7
100
AcDbText
 10
1048.264589697714
 20
67.64999998410542
 30
0.0
 40
1.3
  1
Tmeg/Mass[kg]
 41
0.934
 51
0.0000187239675142
  7
ONSHAPE-STANDARD-NOTESTYLE
100
AcDbText
  0
TEXT
  5
10F
330
1F
100
AcDbEntity
  8
0
  6
CONTINUOUS
 62
     7
100
AcDbText
 10
1066.222826060667
 20
67.64999998410542
 30
0.0
 40
1.5
  1
Anyag/Material:
 41
0.964
 51
0.0000187239675142
  7
ONSHAPE-STANDARD-NOTESTYLE
100
AcDbText
  0
TEXT
  5
110
330
1F
100
AcDbEntity
  8
0
  6
CONTINUOUS
 62
     7
100
AcDbText
 10
1116.222838918182
 20
67.64999998410542
 30
0.0
 40
1.5
  1
Mret/Size:
 41
0.995
 51
0.0000187239675142
  7
ONSHAPE-STANDARD-NOTESTYLE
100
AcDbText
  0
LINE
  5
111
330
1F
100
AcDbEntity
  8
0
  6
CONTINUOUS
 62
   250
100
AcDbLine
 10
969.995997
 20
19.99942
 30
0.0
 11
999.995997
 21
19.99942
 31
0.0
  0
LINE
  5
112
330
1F
100
AcDbEntity
  8
0
  6
CONTINUOUS
 62
   250
100
AcDbLine
 10
999.995997
 20
49.99942
 30
0.0
 11
969.995997
 21
49.99942
 31
0.0
  0
LINE
  5
113
330
1F
100
AcDbEntity
  8
0
  6
CONTINUOUS
 62
   250
100
AcDbLine
 10
969.995997
 20
49.99942
 30
0.0
 11
969.995997
 21
19.99942
 31
0.0
  0
LINE
  5
114
330
1F
100
AcDbEntity
  8
0
  6
CONTINUOUS
 62
   250
100
AcDbLine
 10
999.995997
 20
19.99942
 30
0.0
 11
999.995997
 21
49.99942
 31
0.0
  0
TEXT
  5
115
330
1F
100
AcDbEntity
  8
0
100
AcDbText
 10
1052.551643234629
 20
41.54277258836682
 30
0.0
 40
4.631294045801525
  1
A0
  7
ONSHAPE-STANDARD
100
AcDbText
  0
MTEXT
  5
116
102
{ACAD_XDICTIONARY
360
117
102
}
330
1F
100
AcDbEntity
  8
TITLE_BLOCK
 62
     7
100
AcDbMText
 10
1116.299340748109
 20
47.41169878285613
 30
0.0
 40
4.0
 41
98.95566987176426
 71
     8
 72
     1
  1
HOSSZ ELLENRZ KONZOL LEMEZ}
  7
ONSHAPE-STANDARD
1001
ACAD
1000
ACAD_MTEXT_DEFINED_HEIGHT_BEGIN
1070
    46
1040
4.0
1000
ACAD_MTEXT_DEFINED_HEIGHT_END
  0
MTEXT
  5
11C
102
{ACAD_XDICTIONARY
360
11D
102
}
330
1F
100
AcDbEntity
  8
TITLE_BLOCK
 62
     7
100
AcDbMText
 10
1111.392789183862
 20
25.56335149473868
 30
0.0
 40
5.0
 41
82.29286741566875
 71
     8
 72
     1
  1
P18101-1120-001}
  7
ONSHAPE-STANDARD
1001
ACAD
1000
ACAD_MTEXT_DEFINED_HEIGHT_BEGIN
1070
    46
1040
7.284951841719755
1000
ACAD_MTEXT_DEFINED_HEIGHT_END
  0
MTEXT
  5
121
102
{ACAD_XDICTIONARY
360
122
102
}
330
1F
100
AcDbEntity
  8
TITLE_BLOCK
 62
     7
100
AcDbMText
 10
1056.019741982721
 20
51.59955524485535
 30
0.0
 40
3.5
 41
15.91468750000013
 71
     8
 72
     1
  1
----}
  7
ONSHAPE-STANDARD
1001
ACAD
1000
ACAD_MTEXT_DEFINED_HEIGHT_BEGIN
1070
    46
1040
3.5
1000
ACAD_MTEXT_DEFINED_HEIGHT_END
  0
MTEXT
  5
126
102
{ACAD_XDICTIONARY
360
127
102
}
330
1F
100
AcDbEntity
  8
TITLE_BLOCK
 62
     7
100
AcDbMText
 10
1162.077970941499
 20
29.06758607233629
 30
0.0
 40
3.81
 41
41.90999999999985
 71
     8
 72
     1
  1
1 of 1}
  7
ONSHAPE-STANDARD
1001
ACAD
1000
ACAD_MTEXT_DEFINED_HEIGHT_BEGIN
1070
    46
1040
3.81
1000
ACAD_MTEXT_DEFINED_HEIGHT_END
  0
MTEXT
  5
12C
102
{ACAD_XDICTIONARY
360
12D
102
}
330
1F
100
AcDbEntity
  8
TITLE_BLOCK
 62
     7
100
AcDbMText
 10
1035.651182548047
 20
7.284975899890307
 30
0.0
 40
4.0
 41
130.1750000000002
 71
     8
 72
     1
  1
{P18101-1120-001_hossz_ellenorzo_konzol_lemezFLAT / 03/01/2018}
  7
ONSHAPE-STANDARD
1001
ACAD
1000
ACAD_MTEXT_DEFINED_HEIGHT_BEGIN
1070
    46
1040
5.0
1000
ACAD_MTEXT_DEFINED_HEIGHT_END
  0
MTEXT
  5
132
102
{ACAD_XDICTIONARY
360
133
102
}
330
1F
100
AcDbEntity
  8
ANNOTATION_TEXT
100
AcDbMText
 10
971.3531860887284
 20
55.23787309067937
 30
0.0
 40
2.5
 41
27.31036702390281
 71
     1
 72
     5
  1
\fARIsoP1.shx|b0|i0|c0|p0;SIMON G.}
  7
ONSHAPE-STANDARD-NOTESTYLE
1001
ACAD
1000
ACAD_MTEXT_DEFINED_HEIGHT_BEGIN
1070
    46
1040
2.5
1000
ACAD_MTEXT_DEFINED_HEIGHT_END
  0
MTEXT
  5
138
102
{ACAD_XDICTIONARY
360
139
102
}
330
1F
100
AcDbEntity
  8
ANNOTATION_TEXT
100
AcDbMText
 10
1116.604670786854
 20
63.8295348430246
 30
0.0
 40
2.5
 41
50.33580390258385
 71
     4
 72
     5
  1
\fARIsoP1.shx|b0|i0|c0|p0;LV. 3 mm}
  7
ONSHAPE-STANDARD-NOTESTYLE
1001
ACAD
1000
ACAD_MTEXT_DEFINED_HEIGHT_BEGIN
1070
    46
1040
2.5
1000
ACAD_MTEXT_DEFINED_HEIGHT_END
  0
MTEXT
  5
13A
102
{ACAD_XDICTIONARY
360
13B
102
}
330
1F
100
AcDbEntity
  8
ANNOTATION_TEXT
100
AcDbMText
 10
1050.358912517241
 20
27.90239789633283
 30
0.0
 40
5.0
 41
11.65815621722004
 71
     4
 72
     5
  1
\fARIsoP1.shx|b0|i0|c0|p0;\H5;1:1}
  7
ONSHAPE-STANDARD-NOTESTYLE
1001
ACAD
1000
ACAD_MTEXT_DEFINED_HEIGHT_BEGIN
1070
    46
1040
5.0
1000
ACAD_MTEXT_DEFINED_HEIGHT_END
  0
MTEXT
  5
13F
102
{ACAD_XDICTIONARY
360
140
102
}
330
1F
100
AcDbEntity
  8
ANNOTATION_TEXT
 62
     7
 60
     1
100
AcDbMText
 10
530.5913109581456
 20
254.4825532828236
 30
0.0
 40
2.5
 41
0.0
 71
     2
 72
     1
  1

  7
ONSHAPE-STANDARD-VIEW-LABE
1001
ACAD
1000
ACAD_MTEXT_DEFINED_HEIGHT_BEGIN
1070
    46
1040
2.5
1000
ACAD_MTEXT_DEFINED_HEIGHT_END
  0
MTEXT
  5
143
102
{ACAD_XDICTIONARY
360
21A
102
}
330
1F
100
AcDbEntity
  8
ANNOTATION_TEXT
100
AcDbMText
 10
1053.016545819772
 20
65.33208033214478
 30
0.0
 40
3.0
 41
11.16088807928941
 71
     1
 72
     5
  1
\fARIsoP1.shx|b0|i0|c0|p0;\H3;1,49}
  7
ONSHAPE-STANDARD-NOTESTYLE
1001
ACAD
1000
ACAD_MTEXT_DEFINED_HEIGHT_BEGIN
1070
    46
1040
3.0
1000
ACAD_MTEXT_DEFINED_HEIGHT_END
  0
MTEXT
  5
144
102
{ACAD_XDICTIONARY
360
145
102
}
330
1F
100
AcDbEntity
  8
ANNOTATION_TEXT
100
AcDbMText
 10
971.3787418538725
 20
64.05071385390318
 30
0.0
 40
2.5
 41
27.44494000686552
 71
     4
 72
     5
  1
\fARIsoP1.shx|b0|i0|c0|p0;----}
  7
ONSHAPE-STANDARD-NOTESTYLE
1001
ACAD
1000
ACAD_MTEXT_DEFINED_HEIGHT_BEGIN
1070
    46
1040
2.5
1000
ACAD_MTEXT_DEFINED_HEIGHT_END
  0
MTEXT
  5
149
102
{ACAD_XDICTIONARY
360
14A
102
}
330
1F
100
AcDbEntity
  8
ANNOTATION_TEXT
100
AcDbMText
 10
1001.132467807148
 20
64.00819937439095
 30
0.0
 40
2.0
 41
45.97956323164908
 71
     4
 72
     5
  1
\fARIsoP1.shx|b0|i0|c0|p0;\H2;ZSRTALANTVA}
  7
ONSHAPE-STANDARD-NOTESTYLE
1001
ACAD
1000
ACAD_MTEXT_DEFINED_HEIGHT_BEGIN
1070
    46
1040
2.5
1000
ACAD_MTEXT_DEFINED_HEIGHT_END
  0
MTEXT
  5
14E
102
{ACAD_XDICTIONARY
360
14F
102
}
330
1F
100
AcDbEntity
  8
ANNOTATION_TEXT
100
AcDbMText
 10
1066.524547187484
 20
64.04022721277227
 30
0.0
 40
2.5
 41
46.97680848118762
 71
     4
 72
     5
  1
\fARIsoP1.shx|b0|i0|c0|p0;S235JR}
  7
ONSHAPE-STANDARD-NOTESTYLE
1001
ACAD
1000
ACAD_MTEXT_DEFINED_HEIGHT_BEGIN
1070
    46
1040
6.35
1000
ACAD_MTEXT_DEFINED_HEIGHT_END
  0
MTEXT
  5
153
102
{ACAD_XDICTIONARY
360
21F
102
}
330
1F
100
AcDbEntity
  8
ANNOTATION_TEXT
100
AcDbMText
 10
971.0066002112319
 20
43.35862103395664
 30
0.0
 40
2.5
 41
28.42126878294653
 71
     1
 72
     5
  1
\fARIsoP1.shx|b0|i0|c0|p0;FKP-WELDER KFT\P1037 Budapest\PBcsi t 85}
  7
ONSHAPE-STANDARD-NOTESTYLE
1001
ACAD
1000
ACAD_MTEXT_DEFINED_HEIGHT_BEGIN
1070
    46
1040
27.6984126984127
1000
ACAD_MTEXT_DEFINED_HEIGHT_END
  0
LINE
  5
15E
330
1F
100
AcDbEntity
  8
SHEETMETAL_BEND_LINES_DOWN
  6
CONTINUOUS
 62
     7
 60
     1
100
AcDbLine
 10
685.4097030185603
 20
425.5896667911904
 30
0.0
 11
688.9097030185603
 21
425.5896667911904
 31
0.0
  0
MTEXT
  5
15F
330
1F
100
AcDbEntity
  8
ANNOTATION_TEXT
 62
     7
 60
     1
100
AcDbMText
 10
703.9050155185603
 20
427.3396667911904
 30
0.0
 40
3.5
 41
0.0
 71
     2
 72
     1
  1
{\FISOCP.SHX;DOWN 90,0 R3}
  7
ONSHAPE-STANDARD-DIMENSION
1001
ACAD
1000
ACAD_MTEXT_DEFINED_HEIGHT_BEGIN
1070
    46
1040
4.125
1000
ACAD_MTEXT_DEFINED_HEIGHT_END
  0
LEADER
  5
160
330
1F
100
AcDbEntity
  8
ANNOTATION_LINES
 62
     7
 60
     1
100
AcDbLeader
  3
ONSHAPE-ISO-25$7
 76
     2
 10
651.8413109581453
 20
398.373478097915
 30
0.0
 10
685.4097030185603
 20
425.5896667911904
 30
0.0
1001
ACAD
1000
DSTYLE
1002
{
1070
     5
1000

1070
   341
1005
0
1070
    41
1040
2.5
1070
   176
1070
     0
1002
}
  0
LINE
  5
16A
330
1F
100
AcDbEntity
  8
SHEETMETAL_BEND_LINES_DOWN
  6
CONTINUOUS
 62
     7
 60
     1
100
AcDbLine
 10
613.7289826965412
 20
355.564713834751
 30
0.0
 11
610.2289826965412
 21
355.564713834751
 31
0.0
  0
MTEXT
  5
16B
330
1F
100
AcDbEntity
  8
ANNOTATION_TEXT
 62
     7
 60
     1
100
AcDbMText
 10
595.2336701965412
 20
357.314713834751
 30
0.0
 40
3.5
 41
0.0
 71
     2
 72
     1
  1
{\FISOCP.SHX;DOWN 90,0 R3}
  7
ONSHAPE-STANDARD-DIMENSION
1001
ACAD
1000
ACAD_MTEXT_DEFINED_HEIGHT_BEGIN
1070
    46
1040
4.125
1000
ACAD_MTEXT_DEFINED_HEIGHT_END
  0
LEADER
  5
16C
330
1F
100
AcDbEntity
  8
ANNOTATION_LINES
 62
     7
 60
     1
100
AcDbLeader
  3
ONSHAPE-ISO-25$7
 76
     2
 10
620.9248289473662
 20
332.9569960871352
 30
0.0
 10
613.7289826965412
 20
355.564713834751
 30
0.0
1001
ACAD
1000
DSTYLE
1002
{
1070
     5
1000

1070
   341
1005
0
1070
    41
1040
2.5
1070
   176
1070
     0
1002
}
  0
MTEXT
  5
171
330
1F
100
AcDbEntity
  8
ANNOTATION_TEXT
 62
     7
 60
     1
100
AcDbMText
 10
530.5913109581454
 20
435.3314421194732
 30
0.0
 40
3.5
 41
0.0
 71
     2
 72
     1
  1
{\FISOCP.SHX;UP 90,0 R3}
  7
ONSHAPE-STANDARD-DIMENSION
1001
ACAD
1000
ACAD_MTEXT_DEFINED_HEIGHT_BEGIN
1070
    46
1040
4.125
1000
ACAD_MTEXT_DEFINED_HEIGHT_END
  0
MTEXT
  5
176
330
1F
100
AcDbEntity
  8
ANNOTATION_TEXT
 62
     7
 60
     1
100
AcDbMText
 10
530.5913109581454
 20
478.1644061410291
 30
0.0
 40
3.5
 41
0.0
 71
     2
 72
     1
  1
{\FISOCP.SHX;DOWN 90,0 R3}
  7
ONSHAPE-STANDARD-DIMENSION
1001
ACAD
1000
ACAD_MTEXT_DEFINED_HEIGHT_BEGIN
1070
    46
1040
4.125
1000
ACAD_MTEXT_DEFINED_HEIGHT_END
  0
MTEXT
  5
17B
330
1F
100
AcDbEntity
  8
ANNOTATION_TEXT
 62
     7
 60
     1
100
AcDbMText
 10
530.5913109581454
 20
517.3973701625871
 30
0.0
 40
3.5
 41
0.0
 71
     2
 72
     1
  1
{\FISOCP.SHX;DOWN 90,0 R3}
  7
ONSHAPE-STANDARD-DIMENSION
1001
ACAD
1000
ACAD_MTEXT_DEFINED_HEIGHT_BEGIN
1070
    46
1040
4.125
1000
ACAD_MTEXT_DEFINED_HEIGHT_END
  0
CIRCLE
  5
17E
330
1F
100
AcDbEntity
  8
VISIBLE
100
AcDbCircle
 10
661.8413109581454
 20
322.9569960871352
 30
0.0
 40
7.5
  0
CIRCLE
  5
17F
330
1F
100
AcDbEntity
  8
VISIBLE
100
AcDbCircle
 10
410.8413109581455
 20
554.6888521733651
 30
0.0
 40
3.30000000000008
  0
CIRCLE
  5
180
330
1F
100
AcDbEntity
  8
VISIBLE
100
AcDbCircle
 10
666.8413109581454
 20
554.6888521733651
 30
0.0
 40
3.30000000000008
  0
CIRCLE
  5
181
330
1F
100
AcDbEntity
  8
VISIBLE
100
AcDbCircle
 10
611.5083469365878
 20
277.9569960871352
 30
0.0
 40
2.250000000000085
  0
CIRCLE
  5
182
330
1F
100
AcDbEntity
  8
VISIBLE
100
AcDbCircle
 10
583.5083469365873
 20
277.9569960871352
 30
0.0
 40
2.250000000000085
  0
CIRCLE
  5
183
330
1F
100
AcDbEntity
  8
VISIBLE
100
AcDbCircle
 10
611.5083469365878
 20
317.9569960871352
 30
0.0
 40
2.250000000000085
  0
CIRCLE
  5
184
330
1F
100
AcDbEntity
  8
VISIBLE
100
AcDbCircle
 10
583.5083469365873
 20
317.9569960871352
 30
0.0
 40
2.250000000000085
  0
CIRCLE
  5
185
330
1F
100
AcDbEntity
  8
VISIBLE
100
AcDbCircle
 10
597.5083469365879
 20
306.9569960871352
 30
0.0
 40
11.0
  0
CIRCLE
  5
186
330
1F
100
AcDbEntity
  8
VISIBLE
100
AcDbCircle
 10
421.8413109581453
 20
420.7899601086933
 30
0.0
 40
4.5
  0
CIRCLE
  5
187
330
1F
100
AcDbEntity
  8
VISIBLE
100
AcDbCircle
 10
561.8413109581454
 20
420.7899601086933
 30
0.0
 40
4.5
  0
CIRCLE
  5
188
330
1F
100
AcDbEntity
  8
VISIBLE
100
AcDbCircle
 10
667.3413109581454
 20
420.7899601086933
 30
0.0
 40
4.5
  0
CIRCLE
  5
189
330
1F
100
AcDbEntity
  8
VISIBLE
100
AcDbCircle
 10
675.3413109581454
 20
348.1069960871353
 30
0.0
 40
1.7
  0
CIRCLE
  5
18A
330
1F
100
AcDbEntity
  8
VISIBLE
100
AcDbCircle
 10
675.3413109581454
 20
336.1069960871353
 30
0.0
 40
1.7
  0
CIRCLE
  5
18B
330
1F
100
AcDbEntity
  8
VISIBLE
100
AcDbCircle
 10
596.5583469365879
 20
375.4569960871352
 30
0.0
 40
1.700000000000035
  0
CIRCLE
  5
18C
330
1F
100
AcDbEntity
  8
VISIBLE
100
AcDbCircle
 10
586.5583469365879
 20
375.4569960871352
 30
0.0
 40
1.700000000000035
  0
LINE
  5
18D
330
1F
100
AcDbEntity
  8
VISIBLE
100
AcDbLine
 10
617.5083469365873
 20
394.9569960871352
 30
0.0
 11
617.5083469365878
 21
397.4569960871352
 31
0.0
  0
LINE
  5
18E
330
1F
100
AcDbEntity
  8
VISIBLE
100
AcDbLine
 10
381.8413109581454
 20
570.4458521733652
 30
0.0
 11
381.8413109581454
 21
516.6888521733651
 31
0.0
  0
LINE
  5
18F
330
1F
100
AcDbEntity
  8
VISIBLE
100
AcDbLine
 10
624.3413109581454
 20
394.9569960871352
 30
0.0
 11
617.5083469365873
 21
394.9569960871352
 31
0.0
  0
LINE
  5
190
330
1F
100
AcDbEntity
  8
VISIBLE
100
AcDbLine
 10
575.5083469365878
 20
397.4569960871352
 30
0.0
 11
575.5083469365878
 21
275.9569960871352
 31
0.0
  0
LINE
  5
191
330
1F
100
AcDbEntity
  8
VISIBLE
100
AcDbLine
 10
679.3413109581454
 20
516.6888521733651
 30
0.0
 11
679.3413109581454
 21
570.4458521733652
 31
0.0
  0
LINE
  5
192
330
1F
100
AcDbEntity
  8
VISIBLE
100
AcDbLine
 10
381.8413109581454
 20
477.4558881518092
 30
0.0
 11
381.8413109581454
 21
470.6229241302512
 31
0.0
  0
LINE
  5
193
330
1F
100
AcDbEntity
  8
VISIBLE
100
AcDbLine
 10
673.7161686511374
 20
310.102512247975
 30
0.0
 11
632.7780971967188
 21
272.2842864188051
 31
0.0
  0
LINE
  5
194
330
1F
100
AcDbEntity
  8
VISIBLE
100
AcDbLine
 10
624.3413109581454
 20
401.7899601086931
 30
0.0
 11
386.8413109581454
 21
401.7899601086931
 31
0.0
  0
LINE
  5
195
330
1F
100
AcDbEntity
  8
VISIBLE
100
AcDbLine
 10
679.3413109581454
 20
470.6229241302512
 30
0.0
 11
679.3413109581454
 21
477.4558881518092
 31
0.0
  0
LINE
  5
196
330
1F
100
AcDbEntity
  8
VISIBLE
100
AcDbLine
 10
679.3413109581454
 20
509.855888151809
 30
0.0
 11
679.3413109581454
 21
516.6888521733651
 31
0.0
  0
LINE
  5
197
330
1F
100
AcDbEntity
  8
VISIBLE
100
AcDbLine
 10
381.8413109581454
 20
516.6888521733651
 30
0.0
 11
381.8413109581454
 21
509.855888151809
 31
0.0
  0
LINE
  5
198
330
1F
100
AcDbEntity
  8
VISIBLE
100
AcDbLine
 10
679.3413109581454
 20
434.6229241302512
 30
0.0
 11
679.3413109581454
 21
427.7899601086931
 31
0.0
  0
LINE
  5
199
330
1F
100
AcDbEntity
  8
VISIBLE
100
AcDbLine
 10
381.8413109581454
 20
509.855888151809
 30
0.0
 11
381.8413109581454
 21
477.4558881518092
 31
0.0
  0
LINE
  5
19A
330
1F
100
AcDbEntity
  8
VISIBLE
100
AcDbLine
 10
624.3413109581454
 20
401.7899601086931
 30
0.0
 11
624.3413109581454
 21
394.9569960871352
 31
0.0
  0
LINE
  5
19B
330
1F
100
AcDbEntity
  8
VISIBLE
100
AcDbLine
 10
617.5083469365878
 20
270.9569960871352
 30
0.0
 11
624.3413109581454
 21
270.9569960871352
 31
0.0
  0
LINE
  5
19C
330
1F
100
AcDbEntity
  8
VISIBLE
100
AcDbLine
 10
629.3852807130069
 20
270.9569960871352
 30
0.0
 11
624.3413109581454
 21
270.9569960871352
 31
0.0
  0
LINE
  5
19D
330
1F
100
AcDbEntity
  8
VISIBLE
100
AcDbLine
 10
617.5083469365878
 20
397.4569960871352
 30
0.0
 11
575.5083469365878
 21
397.4569960871352
 31
0.0
  0
LINE
  5
19E
330
1F
100
AcDbEntity
  8
VISIBLE
100
AcDbLine
 10
679.3413109581454
 20
394.9569960871352
 30
0.0
 11
679.3413109581454
 21
322.9569960871352
 31
0.0
  0
LINE
  5
19F
330
1F
100
AcDbEntity
  8
VISIBLE
100
AcDbLine
 10
679.3413109581454
 20
394.9569960871352
 30
0.0
 11
679.3413109581454
 21
401.7899601086931
 31
0.0
  0
LINE
  5
1A0
330
1F
100
AcDbEntity
  8
VISIBLE
100
AcDbLine
 10
679.3413109581454
 20
401.7899601086931
 30
0.0
 11
679.3413109581454
 21
427.7899601086931
 31
0.0
  0
LINE
  5
1A1
330
1F
100
AcDbEntity
  8
VISIBLE
100
AcDbLine
 10
580.5083469365878
 20
270.9569960871352
 30
0.0
 11
617.5083469365878
 21
270.9569960871352
 31
0.0
  0
LINE
  5
1A2
330
1F
100
AcDbEntity
  8
VISIBLE
100
AcDbLine
 10
381.8413109581454
 20
427.7899601086931
 30
0.0
 11
381.8413109581454
 21
434.6229241302512
 31
0.0
  0
LINE
  5
1A3
330
1F
100
AcDbEntity
  8
VISIBLE
100
AcDbLine
 10
679.3413109581454
 20
434.6229241302512
 30
0.0
 11
679.3413109581454
 21
470.6229241302512
 31
0.0
  0
LINE
  5
1A4
330
1F
100
AcDbEntity
  8
VISIBLE
100
AcDbLine
 10
679.3413109581454
 20
477.4558881518092
 30
0.0
 11
679.3413109581454
 21
509.855888151809
 31
0.0
  0
ARC
  5
1A5
330
1F
100
AcDbEntity
  8
VISIBLE
100
AcDbCircle
 10
386.8413109581454
 20
570.4458521733652
 30
0.0
 40
5.0
100
AcDbArc
 50
90.0
 51
180.0
  0
LINE
  5
1A6
330
1F
100
AcDbEntity
  8
VISIBLE
100
AcDbLine
 10
381.8413109581454
 20
470.6229241302512
 30
0.0
 11
381.8413109581454
 21
434.6229241302512
 31
0.0
  0
ARC
  5
1A7
330
1F
100
AcDbEntity
  8
VISIBLE
100
AcDbCircle
 10
661.8413109581469
 20
322.9569960871352
 30
0.0
 40
17.4999999999989
100
AcDbArc
 50
312.7314757399851
 51
0.0
  0
ARC
  5
1A8
330
1F
100
AcDbEntity
  8
VISIBLE
100
AcDbCircle
 10
629.3852807130069
 20
275.9569960871352
 30
0.0
 40
5.0
100
AcDbArc
 50
270.0
 51
312.7314757399987
  0
LINE
  5
1A9
330
1F
100
AcDbEntity
  8
VISIBLE
100
AcDbLine
 10
381.8413109581454
 20
427.7899601086931
 30
0.0
 11
381.8413109581454
 21
406.7899601086933
 31
0.0
  0
LINE
  5
1AA
330
1F
100
AcDbEntity
  8
VISIBLE
100
AcDbLine
 10
674.3413109581454
 20
575.4458521733652
 30
0.0
 11
386.8413109581454
 21
575.4458521733652
 31
0.0
  0
ARC
  5
1AB
330
1F
100
AcDbEntity
  8
VISIBLE
100
AcDbCircle
 10
580.5083469365878
 20
275.9569960871352
 30
0.0
 40
5.0
100
AcDbArc
 50
180.0
 51
270.0
  0
ARC
  5
1AC
330
1F
100
AcDbEntity
  8
VISIBLE
100
AcDbCircle
 10
386.8413109581454
 20
406.7899601086933
 30
0.0
 40
5.0
100
AcDbArc
 50
180.0
 51
270.0
  0
ARC
  5
1AD
330
1F
100
AcDbEntity
  8
VISIBLE
100
AcDbCircle
 10
674.3413109581454
 20
570.4458521733652
 30
0.0
 40
5.0
100
AcDbArc
 50
0.0
 51
90.0
  0
ENDSEC
  0
SECTION
  2
OBJECTS
  0
DICTIONARY
  5
C
330
0
100
AcDbDictionary
  3
ACAD_FIELDLIST
350
154
  3
ACAD_GROUP
350
D
  3
ACAD_LAYOUT
350
1A
  3
ACAD_MATERIAL
350
43
  3
ACAD_MLEADERSTYLE
350
200
  3
ACAD_MLINESTYLE
350
17
  3
ACAD_PLOTSETTINGS
350
19
  3
ACAD_SCALELIST
350
47
  3
ACAD_VISUALSTYLE
350
2A
  3
ACDBVARIABLEDICTIONARY
350
6C
  3
ONSHAPE_DATA
350
1AE
1001
ACAD
1000
TREAT_AS_HARD
1070
     0
  0
DICTIONARY
  5
117
330
116
100
AcDbDictionary
  3
ACAD_MTEXT_RT
360
213
1001
ACAD
1000
TREAT_AS_HARD
1070
     1
  0
DICTIONARY
  5
11D
330
11C
100
AcDbDictionary
  3
ACAD_MTEXT_RT
360
214
1001
ACAD
1000
TREAT_AS_HARD
1070
     1
  0
DICTIONARY
  5
122
330
121
100
AcDbDictionary
  3
ACAD_MTEXT_RT
360
215
1001
ACAD
1000
TREAT_AS_HARD
1070
     1
  0
DICTIONARY
  5
127
330
126
100
AcDbDictionary
  3
ACAD_MTEXT_RT
360
216
1001
ACAD
1000
TREAT_AS_HARD
1070
     1
  0
DICTIONARY
  5
12D
330
12C
100
AcDbDictionary
1001
ACAD
1000
TREAT_AS_HARD
1070
     1
  0
DICTIONARY
  5
133
330
132
100
AcDbDictionary
  3
ACAD_MTEXT_RT
360
217
1001
ACAD
1000
TREAT_AS_HARD
1070
     1
  0
DICTIONARY
  5
139
330
138
100
AcDbDictionary
  3
ACAD_MTEXT_RT
360
218
1001
ACAD
1000
TREAT_AS_HARD
1070
     1
  0
DICTIONARY
  5
13B
330
13A
100
AcDbDictionary
  3
ACAD_MTEXT_RT
360
219
1001
ACAD
1000
TREAT_AS_HARD
1070
     1
  0
DICTIONARY
  5
140
330
13F
100
AcDbDictionary
  3
ONSHAPE_VIEW_ID
360
141
1001
ACAD
1000
TREAT_AS_HARD
1070
     1
  0
DICTIONARY
  5
21A
330
143
100
AcDbDictionary
  3
ACAD_MTEXT_RT
360
21B
  0
DICTIONARY
  5
145
330
144
100
AcDbDictionary
  3
ACAD_MTEXT_RT
360
21C
1001
ACAD
1000
TREAT_AS_HARD
1070
     1
  0
DICTIONARY
  5
14A
330
149
100
AcDbDictionary
  3
ACAD_MTEXT_RT
360
21D
1001
ACAD
1000
TREAT_AS_HARD
1070
     1
  0
DICTIONARY
  5
14F
330
14E
100
AcDbDictionary
  3
ACAD_MTEXT_RT
360
21E
1001
ACAD
1000
TREAT_AS_HARD
1070
     1
  0
DICTIONARY
  5
21F
330
153
100
AcDbDictionary
  3
ACAD_MTEXT_RT
360
220
  0
ACAD_PROXY_OBJECT
  5
154
102
{ACAD_REACTORS
330
C
102
}
330
C
100
AcDbZombieObject
 90
      499
 91
      508
 93
        3
310
80
  0
DICTIONARY
  5
D
102
{ACAD_REACTORS
330
C
102
}
330
C
100
AcDbDictionary
1001
ACAD
1000
TREAT_AS_HARD
1070
     0
  0
DICTIONARY
  5
1A
102
{ACAD_REACTORS
330
C
102
}
330
C
100
AcDbDictionary
1001
ACAD
1000
TREAT_AS_HARD
1070
     0
  0
DICTIONARY
  5
43
102
{ACAD_REACTORS
330
C
102
}
330
C
100
AcDbDictionary
  3
BYBLOCK
350
45
  3
BYLAYER
350
44
  3
GLOBAL
350
46
1001
ACAD
1000
TREAT_AS_HARD
1070
     0
  0
DICTIONARY
  5
200
102
{ACAD_REACTORS
330
C
102
}
330
C
100
AcDbDictionary
1001
ACAD
1000
TREAT_AS_HARD
1070
     0
  0
DICTIONARY
  5
17
102
{ACAD_REACTORS
330
C
102
}
330
C
100
AcDbDictionary
  3
STANDARD
350
18
1001
ACAD
1000
TREAT_AS_HARD
1070
     0
  0
DICTIONARY
  5
19
102
{ACAD_REACTORS
330
C
102
}
330
C
100
AcDbDictionary
1001
ACAD
1000
TREAT_AS_HARD
1070
     0
  0
DICTIONARY
  5
47
102
{ACAD_REACTORS
330
C
102
}
330
C
100
AcDbDictionary
  3
A0
350
48
  3
A1
350
49
  3
A2
350
4A
  3
A3
350
4B
  3
A4
350
4C
  3
A5
350
4D
  3
A6
350
4E
  3
A7
350
4F
  3
A8
350
50
  3
A9
350
51
  3
B0
350
52
  3
B1
350
53
  3
B2
350
54
  3
B3
350
55
  3
B4
350
56
  3
B5
350
57
  3
B6
350
58
  3
B7
350
59
  3
B8
350
5A
  3
B9
350
5B
  3
C0
350
5C
  3
C1
350
5D
  3
C2
350
5E
  3
C3
350
5F
  3
C4
350
60
  3
C5
350
61
  3
C6
350
62
  3
C7
350
63
  3
C8
350
64
  3
C9
350
65
  3
D0
350
66
  3
D1
350
67
  3
D2
350
68
1001
ACAD
1000
TREAT_AS_HARD
1070
     0
  0
DICTIONARY
  5
2A
102
{ACAD_REACTORS
330
C
102
}
330
C
100
AcDbDictionary
  3
2DWIREFRAME
350
2F
  3
BASIC
350
32
  3
BRIGHTEN
350
36
  3
COLORCHANGE
350
3A
  3
CONCEPTUAL
350
34
  3
DIM
350
35
  3
EDGECOLOROFF
350
3D
  3
FACEPATTERN
350
39
  3
FLAT
350
2B
  3
FLATWITHEDGES
350
2C
  3
GOURAUD
350
2D
  3
GOURAUDWITHEDGES
350
2E
  3
HIDDEN
350
31
  3
JITTEROFF
350
3B
  3
LINEPATTERN
350
38
  3
OVERHANGOFF
350
3C
  3
REALISTIC
350
33
  3
SHADED
350
42
  3
SHADED_WITH_EDGES
350
41
  3
SHADES_OF_GRAY
350
3E
  3
SKETCHY
350
3F
  3
THICKEN
350
37
  3
WIREFRAME
350
30
  3
X-RAY
350
40
1001
ACAD
1000
TREAT_AS_HARD
1070
     0
  0
DICTIONARY
  5
6C
102
{ACAD_REACTORS
330
C
102
}
330
C
100
AcDbDictionary
  3
CANNOSCALE
350
221
  3
CTABLESTYLE
350
1FF
  3
DIMASSOC
350
203
  3
HIDETEXT
350
204
  3
MSLTSCALE
350
222
  3
OLEFRAME
350
6D
1001
ACAD
1000
TREAT_AS_HARD
1070
     0
  0
DICTIONARY
  5
1AE
102
{ACAD_REACTORS
330
C
102
}
330
C
100
AcDbDictionary
  3
DIM_UNITS
360
1AF
  3
ONSHAPE_ANG_TOL_PRECISION
360
1B2
  3
ONSHAPE_VSHARP_EXTENSION
360
1B1
  3
ONSHAPE_WELD_STANDARD
360
1B0
1001
ACAD
1000
TREAT_AS_HARD
1070
     1
  0
XRECORD
  5
213
102
{ACAD_REACTORS
330
117
102
}
330
117
100
AcDbXrecord
 40
36997.0
  1
{\pxqc;HOSSZ ELLENRZ KONZOL LEMEZ}
  0
XRECORD
  5
214
102
{ACAD_REACTORS
330
11D
102
}
330
11D
100
AcDbXrecord
 40
7823.0
  1
{\pxqc;P18101-1120-001}
  0
XRECORD
  5
215
102
{ACAD_REACTORS
330
122
102
}
330
122
100
AcDbXrecord
 40
1075.0
  1
{\pxqc;----}
  0
XRECORD
  5
216
102
{ACAD_REACTORS
330
127
102
}
330
127
100
AcDbXrecord
 40
2183.0
  1
{\pxqc;1 of 1}
  0
XRECORD
  5
217
102
{ACAD_REACTORS
330
133
102
}
330
133
100
AcDbXrecord
 40
51650.0
  1
{\pql;\fARIsoP1.shx|b0|i0|c0|p0;SIMON G.}
  0
XRECORD
  5
218
102
{ACAD_REACTORS
330
139
102
}
330
139
100
AcDbXrecord
 40
52075.0
  1
{\pql;\fARIsoP1.shx|b0|i0|c0|p0;LV. 3 mm}
  0
XRECORD
  5
219
102
{ACAD_REACTORS
330
13B
102
}
330
13B
100
AcDbXrecord
 40
48087.0
  1
{\pqc;\fARIsoP1.shx|b0|i0|c0|p0;\H5;1:1}
  0
XRECORD
  5
141
102
{ACAD_REACTORS
330
140
102
}
330
140
100
AcDbXrecord
330
0
  0
XRECORD
  5
21B
102
{ACAD_REACTORS
330
21A
102
}
330
21A
100
AcDbXrecord
 40
49743.0
  1
{\pql;\fARIsoP1.shx|b0|i0|c0|p0;\H3;1,49}
  0
XRECORD
  5
21C
102
{ACAD_REACTORS
330
145
102
}
330
145
100
AcDbXrecord
 40
40043.0
  1
{\pql;\fARIsoP1.shx|b0|i0|c0|p0;----}
  0
XRECORD
  5
21D
102
{ACAD_REACTORS
330
14A
102
}
330
14A
100
AcDbXrecord
 40
90912.0
  1
{\pql;\fARIsoP1.shx|b0|i0|c0|p0;\H2;ZSRTALANTVA}
  0
XRECORD
  5
21E
102
{ACAD_REACTORS
330
14F
102
}
330
14F
100
AcDbXrecord
 40
46791.0
  1
{\pql;\fARIsoP1.shx|b0|i0|c0|p0;S235JR}
  0
XRECORD
  5
220
102
{ACAD_REACTORS
330
21F
102
}
330
21F
100
AcDbXrecord
 40
214610.0
  1
{\pqc;\fARIsoP1.shx|b0|i0|c0|p0;FKP-WELDER KFT 1037 Budapest Bcsi t 85}
  0
MATERIAL
  5
45
102
{ACAD_REACTORS
330
43
102
}
102
{ACAD_XDICTIONARY
360
225
102
}
330
43
100
AcDbMaterial
  1
BYBLOCK
  0
MATERIAL
  5
44
102
{ACAD_REACTORS
330
43
102
}
102
{ACAD_XDICTIONARY
360
223
102
}
330
43
100
AcDbMaterial
  1
BYLAYER
  0
MATERIAL
  5
46
102
{ACAD_REACTORS
330
43
102
}
102
{ACAD_XDICTIONARY
360
227
102
}
330
43
100
AcDbMaterial
  1
GLOBAL
  0
MLINESTYLE
  5
18
102
{ACAD_REACTORS
330
17
102
}
330
17
100
AcDbMlineStyle
  2
Standard
 70
     0
  3

 62
   256
 51
90.0
 52
90.0
 71
     2
 49
0.5
 62
   256
  6
BYLAYER
 49
-0.5
 62
   256
  6
BYLAYER
  0
ACAD_PROXY_OBJECT
  5
48
102
{ACAD_REACTORS
330
47
102
}
330
47
100
AcDbZombieObject
 90
      499
 91
      503
 93
       41
310
903313A31580
  0
ACAD_PROXY_OBJECT
  5
49
102
{ACAD_REACTORS
330
47
102
}
330
47
100
AcDbZombieObject
 90
      499
 91
      503
 93
      105
310
903313A324000000000000004000
  0
ACAD_PROXY_OBJECT
  5
4A
102
{ACAD_REACTORS
330
47
102
}
330
47
100
AcDbZombieObject
 90
      499
 91
      503
 93
      105
310
903313A344000000000000104000
  0
ACAD_PROXY_OBJECT
  5
4B
102
{ACAD_REACTORS
330
47
102
}
330
47
100
AcDbZombieObject
 90
      499
 91
      503
 93
      105
310
903313A354000000000000144000
  0
ACAD_PROXY_OBJECT
  5
4C
102
{ACAD_REACTORS
330
47
102
}
330
47
100
AcDbZombieObject
 90
      499
 91
      503
 93
      105
310
903313A384000000000000204000
  0
ACAD_PROXY_OBJECT
  5
4D
102
{ACAD_REACTORS
330
47
102
}
330
47
100
AcDbZombieObject
 90
      499
 91
      503
 93
      113
310
904313A31304000000000000244000
  0
ACAD_PROXY_OBJECT
  5
4E
102
{ACAD_REACTORS
330
47
102
}
330
47
100
AcDbZombieObject
 90
      499
 91
      503
 93
      113
310
904313A31364000000000000304000
  0
ACAD_PROXY_OBJECT
  5
4F
102
{ACAD_REACTORS
330
47
102
}
330
47
100
AcDbZombieObject
 90
      499
 91
      503
 93
      113
310
904313A32304000000000000344000
  0
ACAD_PROXY_OBJECT
  5
50
102
{ACAD_REACTORS
330
47
102
}
330
47
100
AcDbZombieObject
 90
      499
 91
      503
 93
      113
310
904313A333040000000000003E4000
  0
ACAD_PROXY_OBJECT
  5
51
102
{ACAD_REACTORS
330
47
102
}
330
47
100
AcDbZombieObject
 90
      499
 91
      503
 93
      113
310
904313A34304000000000000444000
  0
ACAD_PROXY_OBJECT
  5
52
102
{ACAD_REACTORS
330
47
102
}
330
47
100
AcDbZombieObject
 90
      499
 91
      503
 93
      113
310
904313A35304000000000000494000
  0
ACAD_PROXY_OBJECT
  5
53
102
{ACAD_REACTORS
330
47
102
}
330
47
100
AcDbZombieObject
 90
      499
 91
      503
 93
      121
310
905313A3130304000000000000594000
  0
ACAD_PROXY_OBJECT
  5
54
102
{ACAD_REACTORS
330
47
102
}
330
47
100
AcDbZombieObject
 90
      499
 91
      503
 93
      105
310
903323A310000000000000010100
  0
ACAD_PROXY_OBJECT
  5
55
102
{ACAD_REACTORS
330
47
102
}
330
47
100
AcDbZombieObject
 90
      499
 91
      503
 93
      105
310
903343A310000000000000410100
  0
ACAD_PROXY_OBJECT
  5
56
102
{ACAD_REACTORS
330
47
102
}
330
47
100
AcDbZombieObject
 90
      499
 91
      503
 93
      105
310
903383A310000000000000810100
  0
ACAD_PROXY_OBJECT
  5
57
102
{ACAD_REACTORS
330
47
102
}
330
47
100
AcDbZombieObject
 90
      499
 91
      503
 93
      113
310
90431303A310000000000000910100
  0
ACAD_PROXY_OBJECT
  5
58
102
{ACAD_REACTORS
330
47
102
}
330
47
100
AcDbZombieObject
 90
      499
 91
      503
 93
      121
310
9053130303A310000000000001650100
  0
ACAD_PROXY_OBJECT
  5
59
102
{ACAD_REACTORS
330
47
102
}
330
47
100
AcDbZombieObject
 90
      499
 91
      503
 93
      257
310
90E312F31323822203D2031272D3022000000000000200FC000000000000284000
  0
ACAD_PROXY_OBJECT
  5
5A
102
{ACAD_REACTORS
330
47
102
}
330
47
100
AcDbZombieObject
 90
      499
 91
      503
 93
      249
310
90D312F363422203D2031272D3022000000000000240FC000000000000284000
  0
ACAD_PROXY_OBJECT
  5
5B
102
{ACAD_REACTORS
330
47
102
}
330
47
100
AcDbZombieObject
 90
      499
 91
      503
 93
      249
310
90D312F333222203D2031272D3022000000000000280FC000000000000284000
  0
ACAD_PROXY_OBJECT
  5
5C
102
{ACAD_REACTORS
330
47
102
}
330
47
100
AcDbZombieObject
 90
      499
 91
      503
 93
      249
310
90D312F313622203D2031272D30220000000000002C0FC000000000000284000
  0
ACAD_PROXY_OBJECT
  5
5D
102
{ACAD_REACTORS
330
47
102
}
330
47
100
AcDbZombieObject
 90
      499
 91
      503
 93
      249
310
90D332F333222203D2031272D30220000000000002E0FC000000000000284000
  0
ACAD_PROXY_OBJECT
  5
5E
102
{ACAD_REACTORS
330
47
102
}
330
47
100
AcDbZombieObject
 90
      499
 91
      503
 93
      241
310
90C312F3822203D2031272D3022000000000000300FC000000000000284000
  0
ACAD_PROXY_OBJECT
  5
5F
102
{ACAD_REACTORS
330
47
102
}
330
47
100
AcDbZombieObject
 90
      499
 91
      503
 93
      249
310
90D332F313622203D2031272D3022000000000000320FC000000000000284000
  0
ACAD_PROXY_OBJECT
  5
60
102
{ACAD_REACTORS
330
47
102
}
330
47
100
AcDbZombieObject
 90
      499
 91
      503
 93
      241
310
90C312F3422203D2031272D3022000000000000340FC000000000000284000
  0
ACAD_PROXY_OBJECT
  5
61
102
{ACAD_REACTORS
330
47
102
}
330
47
100
AcDbZombieObject
 90
      499
 91
      503
 93
      241
310
90C332F3822203D2031272D3022000000000000360FC000000000000284000
  0
ACAD_PROXY_OBJECT
  5
62
102
{ACAD_REACTORS
330
47
102
}
330
47
100
AcDbZombieObject
 90
      499
 91
      503
 93
      241
310
90C312F3222203D2031272D3022000000000000380FC000000000000284000
  0
ACAD_PROXY_OBJECT
  5
63
102
{ACAD_REACTORS
330
47
102
}
330
47
100
AcDbZombieObject
 90
      499
 91
      503
 93
      241
310
90C332F3422203D2031272D30220000000000003A0FC000000000000284000
  0
ACAD_PROXY_OBJECT
  5
64
102
{ACAD_REACTORS
330
47
102
}
330
47
100
AcDbZombieObject
 90
      499
 91
      503
 93
      161
310
90A3122203D2031272D30224000000000000284000
  0
ACAD_PROXY_OBJECT
  5
65
102
{ACAD_REACTORS
330
47
102
}
330
47
100
AcDbZombieObject
 90
      499
 91
      503
 93
      257
310
90E312D312F3222203D2031272D30220000000000003E0FC000000000000284000
  0
ACAD_PROXY_OBJECT
  5
66
102
{ACAD_REACTORS
330
47
102
}
330
47
100
AcDbZombieObject
 90
      499
 91
      503
 93
      225
310
90A3322203D2031272D302200000000000002100000000000000284000
  0
ACAD_PROXY_OBJECT
  5
67
102
{ACAD_REACTORS
330
47
102
}
330
47
100
AcDbZombieObject
 90
      499
 91
      503
 93
      225
310
90A3622203D2031272D302200000000000006100000000000000284000
  0
ACAD_PROXY_OBJECT
  5
68
102
{ACAD_REACTORS
330
47
102
}
330
47
100
AcDbZombieObject
 90
      499
 91
      503
 93
      249
310
90D31272D3022203D2031272D30220000000000000A100000000000000284000
  0
ACAD_PROXY_OBJECT
  5
2F
102
{ACAD_REACTORS
330
2A
102
}
330
2A
100
AcDbZombieObject
 90
      499
 91
      501
 93
      436
310
42CC9915DA5C99599C985B595049028333333333333E33F0000000000000F90107901411070040501600405405064090741402480A0340
1001
ACAD
1000
AcDbSavedByObjectVersion
1070
     0
  0
ACAD_PROXY_OBJECT
  5
32
102
{ACAD_REACTORS
330
2A
102
}
330
2A
100
AcDbZombieObject
 90
      499
 91
      501
 93
      388
310
4150985CDA58D07406404333333333333E33F0000000000000F90107A41107004050150841D405064090741402480A0350
1001
ACAD
1000
AcDbSavedByObjectVersion
1070
     0
  0
ACAD_PROXY_OBJECT
  5
36
102
{ACAD_REACTORS
330
2A
102
}
330
2A
100
AcDbZombieObject
 90
      499
 91
      501
 93
      428
310
42109C9A59DA1D195B90C409028333333333333E33F0000000000000F9010790141107004050150841D405064090741402480A029950
1001
ACAD
1000
AcDbSavedByObjectVersion
1070
     0
  0
ACAD_PROXY_OBJECT
  5
3A
102
{ACAD_REACTORS
330
2A
102
}
330
2A
100
AcDbZombieObject
 90
      499
 91
      501
 93
      452
310
42D0DBDB1BDC90DA185B99D95104090240C333333333333E33F0000000000000F90108901411070040501508421405064090741402480A0350
1001
ACAD
1000
AcDbSavedByObjectVersion
1070
     0
  0
ACAD_PROXY_OBJECT
  5
34
102
{ACAD_REACTORS
330
2A
102
}
330
2A
100
AcDbZombieObject
 90
      499
 91
      501
 93
      500
310
4290DBDB98D95C1D1D585B10940D028333333333333E33F0000000000000F90107902409070040501000000000018199010841D405064090740C02480A0340
1001
ACAD
1000
AcDbSavedByObjectVersion
1070
     0
  0
ACAD_PROXY_OBJECT
  5
35
102
{ACAD_REACTORS
330
2A
102
}
330
2A
100
AcDbZombieObject
 90
      499
 91
      501
 93
      412
310
40D11A5B50B409028333333333333E33F0000000000000F9010790141107004050150841D405064090741402480A02677FFFFFD0
1001
ACAD
1000
AcDbSavedByObjectVersion
1070
     0
  0
ACAD_PROXY_OBJECT
  5
3D
102
{ACAD_REACTORS
330
2A
102
}
330
2A
100
AcDbZombieObject
 90
      499
 91
      501
 93
      452
310
43115919D950DBDB1BDC93D999916409028333333333333E33F0000000000000F9010790141107004050150841D405064090741402480A0350
1001
ACAD
1000
AcDbSavedByObjectVersion
1070
     0
  0
ACAD_PROXY_OBJECT
  5
39
102
{ACAD_REACTORS
330
2A
102
}
330
2A
100
AcDbZombieObject
 90
      499
 91
      501
 93
      444
310
42D19858D95C185D1D195C9B90F409028333333333333E33F0000000000000F9010790141107004050150841D405064090741402480A0350
1001
ACAD
1000
AcDbSavedByObjectVersion
1070
     0
  0
ACAD_PROXY_OBJECT
  5
2B
102
{ACAD_REACTORS
330
2A
102
}
330
2A
100
AcDbZombieObject
 90
      499
 91
      501
 93
      380
310
41119B185D240901404333333333333E33F0000000000000F9010740A907004050150841D405064090741402480A1B50
1001
ACAD
1000
AcDbSavedByObjectVersion
1070
     0
  0
ACAD_PROXY_OBJECT
  5
2C
102
{ACAD_REACTORS
330
2A
102
}
330
2A
100
AcDbZombieObject
 90
      499
 91
      501
 93
      468
310
43519B185D15DA5D1A115919D95CD0140901404333333333333E33F0000000000000F90107409019070040501600405405064090741402480A1B50
1001
ACAD
1000
AcDbSavedByObjectVersion
1070
     0
  0
ACAD_PROXY_OBJECT
  5
2D
102
{ACAD_REACTORS
330
2A
102
}
330
2A
100
AcDbZombieObject
 90
      499
 91
      501
 93
      404
310
41D1DBDD5C985D5910240902404333333333333E33F0000000000000F9010740A9070040501641D405064090741402480A1B50
1001
ACAD
1000
AcDbSavedByObjectVersion
1070
     0
  0
ACAD_PROXY_OBJECT
  5
2E
102
{ACAD_REACTORS
330
2A
102
}
330
2A
100
AcDbZombieObject
 90
      499
 91
      501
 93
      492
310
4411DBDD5C985D5915DA5D1A115919D95CD0340902404333333333333E33F0000000000000F90107409019070040501600405405064090741402480A1B50
1001
ACAD
1000
AcDbSavedByObjectVersion
1070
     0
  0
ACAD_PROXY_OBJECT
  5
31
102
{ACAD_REACTORS
330
2A
102
}
330
2A
100
AcDbZombieObject
 90
      499
 91
      501
 93
      476
310
41921A5919195B90640502408333333333333E33F0000000000000F901079024090700405020000000000001110200405405064090740C02480A0340
1001
ACAD
1000
AcDbSavedByObjectVersion
1070
     0
  0
ACAD_PROXY_OBJECT
  5
3B
102
{ACAD_REACTORS
330
2A
102
}
330
2A
100
AcDbZombieObject
 90
      499
 91
      501
 93
      428
310
42529A5D1D195C93D999914409028333333333333E33F0000000000000F9010790141107004050150A41D405064090741402480A0350
1001
ACAD
1000
AcDbSavedByObjectVersion
1070
     0
  0
ACAD_PROXY_OBJECT
  5
38
102
{ACAD_REACTORS
330
2A
102
}
330
2A
100
AcDbZombieObject
 90
      499
 91
      501
 93
      444
310
42D31A5B995C185D1D195C9B90E409028333333333333E33F0000000000000F9010790141107004050750841D405064090741402483A0350
1001
ACAD
1000
AcDbSavedByObjectVersion
1070
     0
  0
ACAD_PROXY_OBJECT
  5
3C
102
{ACAD_REACTORS
330
2A
102
}
330
2A
100
AcDbZombieObject
 90
      499
 91
      501
 93
      444
310
42D3DD995C9A185B99D3D999915409028333333333333E33F0000000000000F9010790141107004050150941D405064090741402480A0350
1001
ACAD
1000
AcDbSavedByObjectVersion
1070
     0
  0
ACAD_PROXY_OBJECT
  5
33
102
{ACAD_REACTORS
330
2A
102
}
330
2A
100
AcDbZombieObject
 90
      499
 91
      501
 93
      428
310
425499585B1A5CDD1A58D08409038333333333333E33F0000000000000F9010740A907004050150800405405064090740C02480A1B40
1001
ACAD
1000
AcDbSavedByObjectVersion
1070
     0
  0
ACAD_PROXY_OBJECT
  5
42
102
{ACAD_REACTORS
330
2A
102
}
330
2A
100
AcDbZombieObject
 90
      499
 91
      501
 93
      420
310
4194DA1859195911B40902404333333333333E33F0000000000000F9010740A41107004050150800405405064090840C02480A0B40
1001
ACAD
1000
AcDbSavedByObjectVersion
1070
     0
  0
ACAD_PROXY_OBJECT
  5
41
102
{ACAD_REACTORS
330
2A
102
}
330
2A
100
AcDbZombieObject
 90
      499
 91
      501
 93
      516
310
4454DA18591959081DDA5D1A08195919D95CD1A40902404333333333333E33F0000000000000F901074090142907004050250800405405064090740C02480A0B40
1001
ACAD
1000
AcDbSavedByObjectVersion
1070
     0
  0
ACAD_PROXY_OBJECT
  5
3E
102
{ACAD_REACTORS
330
2A
102
}
330
2A
100
AcDbZombieObject
 90
      499
 91
      501
 93
      532
310
4394DA1859195CC81BD98811DC985E5174090240C333333333333E33F0000000000000F901079024090741D01000000000000111010841D405064090740C02480A0340
1001
ACAD
1000
AcDbSavedByObjectVersion
1070
     0
  0
ACAD_PROXY_OBJECT
  5
3F
102
{ACAD_REACTORS
330
2A
102
}
330
2A
100
AcDbZombieObject
 90
      499
 91
      501
 93
      476
310
41D4DAD95D18DA1E51840502408333333333333E33F0000000000000F901079024090741D01000000000000111010B41D405064090741802480A0340
1001
ACAD
1000
AcDbSavedByObjectVersion
1070
     0
  0
ACAD_PROXY_OBJECT
  5
37
102
{ACAD_REACTORS
330
2A
102
}
330
2A
100
AcDbZombieObject
 90
      499
 91
      501
 93
      412
310
41D51A1A58DAD95B90D409028333333333333E33F0000000000000F9010790141107004050150C41D405064090741402480A0350
1001
ACAD
1000
AcDbSavedByObjectVersion
1070
     0
  0
ACAD_PROXY_OBJECT
  5
30
102
{ACAD_REACTORS
330
2A
102
}
330
2A
100
AcDbZombieObject
 90
      499
 91
      501
 93
      420
310
4255DA5C99599C985B595059028333333333333E33F0000000000000F90107901411070040501600405405064090740C02480A0340
1001
ACAD
1000
AcDbSavedByObjectVersion
1070
     0
  0
ACAD_PROXY_OBJECT
  5
40
102
{ACAD_REACTORS
330
2A
102
}
330
2A
100
AcDbZombieObject
 90
      499
 91
      501
 93
      404
310
41560B54985E51940902404000000000000E03F0000000000000F9010740501907004050150841D405064090740C02480A1B40
1001
ACAD
1000
AcDbSavedByObjectVersion
1070
     0
  0
DICTIONARYVAR
  5
221
102
{ACAD_REACTORS
330
6C
102
}
330
6C
100
DictionaryVariables
280
     0
  1
1:1
  0
DICTIONARYVAR
  5
1FF
102
{ACAD_REACTORS
330
6C
102
}
330
6C
100
DictionaryVariables
280
     0
  1
Onshape-Standard
  0
DICTIONARYVAR
  5
203
102
{ACAD_REACTORS
330
6C
102
}
330
6C
100
DictionaryVariables
280
     0
  1
2
  0
DICTIONARYVAR
  5
204
102
{ACAD_REACTORS
330
6C
102
}
330
6C
100
DictionaryVariables
280
     0
  1
1
  0
DICTIONARYVAR
  5
222
102
{ACAD_REACTORS
330
6C
102
}
330
6C
100
DictionaryVariables
280
     0
  1
1
  0
DICTIONARYVAR
  5
6D
102
{ACAD_REACTORS
330
6C
102
}
330
6C
100
DictionaryVariables
280
     0
  1
0
  0
XRECORD
  5
1AF
102
{ACAD_REACTORS
330
1AE
102
}
330
1AE
100
AcDbXrecord
 70
     4
  0
XRECORD
  5
1B2
102
{ACAD_REACTORS
330
1AE
102
}
330
1AE
100
AcDbXrecord
 90
        0
  0
XRECORD
  5
1B1
102
{ACAD_REACTORS
330
1AE
102
}
330
1AE
100
AcDbXrecord
 90
        0
  0
XRECORD
  5
1B0
102
{ACAD_REACTORS
330
1AE
102
}
330
1AE
100
AcDbXrecord
 90
        0
  0
DICTIONARY
  5
225
330
45
100
AcDbDictionary
  3
ACAD_XREC_ROUNDTRIP
360
226
1001
ACAD
1000
TREAT_AS_HARD
1070
     1
  0
DICTIONARY
  5
223
330
44
100
AcDbDictionary
  3
ACAD_XREC_ROUNDTRIP
360
224
1001
ACAD
1000
TREAT_AS_HARD
1070
     1
  0
DICTIONARY
  5
227
330
46
100
AcDbDictionary
  3
ACAD_XREC_ROUNDTRIP
360
228
1001
ACAD
1000
TREAT_AS_HARD
1070
     1
  0
XRECORD
  5
226
102
{ACAD_REACTORS
330
225
102
}
330
225
100
AcDbXrecord
102
MATERIAL
148
0.0
149
0.0
149
0.0
 93
        0
 94
      127
282
     0
 72
     1
 77
     1
171
     1
175
     1
179
     1
273
     0
  0
XRECORD
  5
224
102
{ACAD_REACTORS
330
223
102
}
330
223
100
AcDbXrecord
102
MATERIAL
148
0.0
149
0.0
149
0.0
 93
        0
 94
      127
282
     0
 72
     1
 77
     1
171
     1
175
     1
179
     1
273
     0
  0
XRECORD
  5
228
102
{ACAD_REACTORS
330
227
102
}
330
227
100
AcDbXrecord
102
MATERIAL
148
0.0
149
0.0
149
0.0
 93
        0
 94
      127
282
     0
 72
     1
 77
     1
171
     1
175
     1
179
     1
273
     0
  0
ENDSEC
  0
EOF
